<?xml version="1.0" encoding="UTF-8"?>
<svg id="Layer_2" data-name="Layer 2" xmlns="http://www.w3.org/2000/svg" viewBox="0 0 139.8 242.81">
  <defs>
    <style>
      .cls-1 {
        fill: none;
      }

      .cls-1, .cls-2 {
        stroke-width: 0px;
      }

      .cls-2 {
        fill: #fff;
      }
    </style>
  </defs>
  <g id="Layer_5" data-name="Layer 5">
    <g>
      <g>
        <path class="cls-1" d="m90.15,158.19c2.68.11,5.38.24,8.07.39l-.14-4.16c-.77-.67-1.28-1.6-1.28-2.92v-1.21c-7.04,2.5-14.05,3.39-20.82,3.67l-.12,3.87c4.78.05,9.57.16,14.29.37Z"/>
        <path class="cls-1" d="m16.99,159.67c1.66.12,3.29.18,4.98.18s3.25-.06,4.83-.18c.7-.06,1.4-.12,2.11-.17.28-.03.56-.04.84-.07l-.12-3.66c-1.06-.1-2.12-.21-3.17-.33-2.48-.27-4.82-.52-6.59-.52-.87,0-1.54.06-2.01.18-3.79.99-5.05,2.5-5.98,4.03.41.07.83.14,1.12.17.74.09,2.41.24,3.99.36Z"/>
        <path class="cls-1" d="m41.71,154.42l-.13,4.16c2.71-.16,5.42-.29,8.12-.4,4.7-.21,9.48-.32,14.25-.37l-.13-3.86c-6.77-.27-13.79-1.17-20.83-3.67v1.21c0,1.32-.51,2.25-1.28,2.92Z"/>
        <path class="cls-1" d="m110.97,159.5c.68.04,1.39.11,2.09.17,1.57.12,3.19.18,4.82.18s3.32-.06,4.98-.18c1.58-.12,3.25-.27,3.98-.36.28-.03.69-.1,1.08-.16-.92-1.54-2.18-3.05-5.98-4.04-.47-.12-1.14-.18-2.01-.18-1.77,0-4.11.25-6.59.52-1.05.11-2.11.22-3.17.32l-.12,3.66c.3.03.6.05.91.07Z"/>
        <path class="cls-2" d="m117.59,31.41c0-1.74-1.42-3.16-3.16-3.16h-20.55c-1.74,0-3.16,1.42-3.16,3.16s1.42,3.16,3.16,3.16h20.55c1.74,0,3.16-1.42,3.16-3.16Z"/>
        <path class="cls-2" d="m93.88,25.97c-.48,0-.88.39-.88.88s.39.88.88.88h20.55c.48,0,.88-.39.88-.88s-.39-.88-.88-.88h-20.55Z"/>
        <path class="cls-2" d="m115.3,35.98c0-.48-.39-.88-.88-.88h-20.55c-.48,0-.88.39-.88.88s.39.88.88.88h20.15s0,0,0,0h.4c.48,0,.88-.39.88-.88Z"/>
        <path class="cls-2" d="m101.32,158.79l-.06-2.99c-.64-.12-1.29-.3-1.89-.57l.11,3.43c.61.04,1.22.08,1.84.12Z"/>
        <path class="cls-2" d="m113.32,37.38h-18.39c.45.74.67,2.02.67,2.41l.07,2.16h1.94v-2.33h0c0-.76.61-1.37,1.37-1.37s1.37.61,1.37,1.37v.27c0-.61-.49-1.1-1.1-1.1s-1.1.49-1.1,1.1v2.06h4.64v-2.33h0c0-.76.61-1.37,1.37-1.37s1.37.61,1.37,1.37v.27c0-.61-.49-1.1-1.1-1.1s-1.1.49-1.1,1.1v2.06h4.64v-2.33h0c0-.76.61-1.37,1.37-1.37s1.37.61,1.37,1.37v.27c0-.61-.49-1.1-1.1-1.1s-1.1.49-1.1,1.1v2.06h4.11l.07-2.18c0-.29.19-1.63.65-2.39Z"/>
        <path class="cls-2" d="m106.12,159.11c.1,0,.2.02.3.02l.07-3.09c-.55.02-1.11.04-1.64.04-.13,0-.29,0-.46,0v2.91c.57.04,1.15.07,1.73.11Z"/>
        <path class="cls-2" d="m108.81,159.33l.11-3.44c-.64.05-1.27.1-1.89.13l-.07,3.16c.62.05,1.24.1,1.85.15Z"/>
        <path class="cls-2" d="m103.86,158.96v-2.89c-.6-.02-1.32-.06-2.07-.18l.06,2.93c.67.04,1.34.09,2.01.13Z"/>
        <polygon class="cls-2" points="114.02 37.11 114.02 37.11 114.02 37.11 114.02 37.11"/>
        <path class="cls-2" d="m95.77,25.43h16.76c3.35-3.47,1.6-7.15,1.6-8.36s2.32-2.33,2.32-5.71c0-2.41-1.44-4.35-1.44-4.35-2.18,6.18-6.21,7.05-8.31,7.05-.82,0-1.35-.13-1.35-.13.8-.08,5.91-2.09,5.99-6.44.08-4.35,5.11-7.16,5.11-7.16C115.44.1,114.51,0,113.64,0c-5.97,0-8.55,4.93-9.01,5.65-.53.82,0,1.61-5.35,4.51-5.35,2.9-6.54,4.91-6.62,8.21s3.11,7.07,3.11,7.07Zm1.8-13.41s-2.09,2.97-2.09,4.06,1.85,2.66,1.9,4.03c0,0,.38-2.04,1.42-2.9,0,0-1,7.45,4.65,3.99,0,0,3.42,2.04,5.84-1.9,0,0,.66,6.03-5.84,3.84,0,0-3.8,1.47-5.32-.57l-.14,2.16s-4.27-2.02-4.08-6.36c.19-4.34,3.65-6.36,3.65-6.36Z"/>
        <path class="cls-2" d="m83.33,31.41c0-1.74-1.42-3.16-3.16-3.16h-20.55c-1.74,0-3.16,1.42-3.16,3.16s1.42,3.16,3.16,3.16h20.55c1.74,0,3.16-1.42,3.16-3.16Z"/>
        <path class="cls-2" d="m59.62,25.97c-.48,0-.88.39-.88.88s.39.88.88.88h20.55c.48,0,.88-.39.88-.88s-.39-.88-.88-.88h-20.55Z"/>
        <path class="cls-2" d="m81.05,35.98c0-.48-.39-.88-.88-.88h-20.55c-.48,0-.88.39-.88.88s.39.88.88.88h20.15s0,0,0,0h.4c.48,0,.88-.39.88-.88Z"/>
        <path class="cls-2" d="m67.07,157.78l-.08-3.74c-.64-.01-1.27-.03-1.91-.04l.12,3.81c.62,0,1.25-.02,1.87-.02Z"/>
        <path class="cls-2" d="m79.07,37.38h-18.39c.45.74.67,2.02.67,2.41l.07,2.16h1.94v-2.33h0c0-.76.61-1.37,1.37-1.37s1.37.61,1.37,1.37v.27c0-.61-.49-1.1-1.1-1.1s-1.1.49-1.1,1.1v2.06h4.64v-2.33h0c0-.76.61-1.37,1.37-1.37s1.37.61,1.37,1.37v.27c0-.61-.49-1.1-1.1-1.1s-1.1.49-1.1,1.1v2.06h4.64v-2.33h0c0-.76.61-1.37,1.37-1.37s1.37.61,1.37,1.37v.27c0-.61-.49-1.1-1.1-1.1s-1.1.49-1.1,1.1v2.06h4.11l.07-2.18c0-.29.19-1.63.65-2.39Z"/>
        <path class="cls-2" d="m72.22,157.78l.08-3.72c-.72,0-1.43.02-2.14.02v3.69c.68,0,1.37,0,2.06.01Z"/>
        <path class="cls-2" d="m74.6,157.81l.12-3.81c-.63.02-1.26.03-1.89.04l-.08,3.74c.61,0,1.23.02,1.85.02Z"/>
        <path class="cls-2" d="m69.63,157.77v-3.69c-.7,0-1.4,0-2.11-.02l.08,3.72c.67-.01,1.35-.01,2.03-.01Z"/>
        <polygon class="cls-2" points="79.77 37.11 79.77 37.11 79.77 37.11 79.77 37.11"/>
        <path class="cls-2" d="m61.52,25.43h16.76c3.35-3.47,1.6-7.15,1.6-8.36s2.32-2.33,2.32-5.71c0-2.41-1.44-4.35-1.44-4.35-2.18,6.18-6.21,7.05-8.31,7.05-.82,0-1.35-.13-1.35-.13.8-.08,5.91-2.09,5.99-6.44.08-4.35,5.11-7.16,5.11-7.16C81.19.1,80.25,0,79.39,0c-5.97,0-8.55,4.93-9.01,5.65-.53.82,0,1.61-5.35,4.51-5.35,2.9-6.54,4.91-6.62,8.21-.08,3.3,3.11,7.07,3.11,7.07Zm1.8-13.41s-2.09,2.97-2.09,4.06,1.85,2.66,1.9,4.03c0,0,.38-2.04,1.42-2.9,0,0-1,7.45,4.65,3.99,0,0,3.42,2.04,5.84-1.9,0,0,.66,6.03-5.84,3.84,0,0-3.8,1.47-5.32-.57l-.14,2.16s-4.27-2.02-4.08-6.36,3.65-6.36,3.65-6.36Z"/>
        <path class="cls-2" d="m49.08,31.41c0-1.74-1.42-3.16-3.16-3.16h-20.55c-1.74,0-3.16,1.42-3.16,3.16s1.42,3.16,3.16,3.16h20.55c1.74,0,3.16-1.42,3.16-3.16Z"/>
        <path class="cls-2" d="m25.37,25.97c-.48,0-.88.39-.88.88s.39.88.88.88h20.55c.48,0,.88-.39.88-.88s-.39-.88-.88-.88h-20.55Z"/>
        <path class="cls-2" d="m46.8,35.98c0-.48-.39-.88-.88-.88h-20.55c-.48,0-.88.39-.88.88s.39.88.88.88h20.15s0,0,0,0h.4c.48,0,.88-.39.88-.88Z"/>
        <path class="cls-2" d="m32.87,159.18l-.07-3.16c-.63-.03-1.27-.08-1.92-.13l.11,3.44c.62-.05,1.24-.11,1.87-.15Z"/>
        <path class="cls-2" d="m44.81,37.38h-18.39c.45.74.67,2.02.67,2.41l.07,2.16h1.94v-2.33h0c0-.76.61-1.37,1.37-1.37s1.37.61,1.37,1.37v.27c0-.61-.49-1.1-1.1-1.1s-1.1.49-1.1,1.1v2.06h4.64v-2.33h0c0-.76.61-1.37,1.37-1.37s1.37.61,1.37,1.37v.27c0-.61-.49-1.1-1.1-1.1s-1.1.49-1.1,1.1v2.06h4.64v-2.33h0c0-.76.61-1.37,1.37-1.37s1.37.61,1.37,1.37v.27c0-.61-.49-1.1-1.1-1.1s-1.1.49-1.1,1.1v2.06h4.11l.07-2.18c0-.29.19-1.63.65-2.39Z"/>
        <path class="cls-2" d="m37.97,158.83l.07-2.93c-.76.11-1.49.16-2.1.18v2.89c.68-.05,1.35-.09,2.03-.13Z"/>
        <path class="cls-2" d="m40.32,158.67l.11-3.44c-.59.26-1.23.44-1.86.57l-.07,2.99c.61-.04,1.21-.08,1.82-.12Z"/>
        <path class="cls-2" d="m33.72,159.11c.56-.04,1.12-.07,1.68-.11v-2.91c-.17,0-.32,0-.46,0-.52,0-1.07-.02-1.61-.04l.07,3.09c.11,0,.21-.02.32-.03Z"/>
        <polygon class="cls-2" points="45.52 37.11 45.52 37.11 45.52 37.11 45.52 37.11"/>
        <path class="cls-2" d="m27.27,25.43h16.76c3.35-3.47,1.6-7.15,1.6-8.36s2.32-2.33,2.32-5.71c0-2.41-1.44-4.35-1.44-4.35-2.18,6.18-6.21,7.05-8.31,7.05-.82,0-1.35-.13-1.35-.13.8-.08,5.91-2.09,5.99-6.44.08-4.35,5.11-7.16,5.11-7.16C46.93.1,46,0,45.14,0c-5.97,0-8.55,4.93-9.01,5.65-.53.82,0,1.61-5.35,4.51-5.35,2.9-6.54,4.91-6.62,8.21s3.11,7.07,3.11,7.07Zm1.8-13.41s-2.09,2.97-2.09,4.06,1.85,2.66,1.9,4.03c0,0,.38-2.04,1.42-2.9,0,0-1,7.45,4.65,3.99,0,0,3.42,2.04,5.84-1.9,0,0,.66,6.03-5.84,3.84,0,0-3.8,1.47-5.32-.57l-.14,2.16s-4.27-2.02-4.08-6.36c.19-4.34,3.65-6.36,3.65-6.36Z"/>
        <path class="cls-2" d="m106.54,180.42c.16.13.26.33.26.57,0,.4-.28.71-.65.71s-.65-.31-.65-.71c0-.29.15-.54.38-.65,0-.93,0-3.75-1.59-3.75-.32,0-.59.11-.81.33-.53.54-.79,1.69-.78,3.42.22.11.38.36.38.65,0,.39-.3.71-.65.71s-.65-.31-.65-.71c0-.24.1-.44.26-.57-.4-1.66-1.12-2.85-2.04-3.38-.52-.31-1.03-.39-1.35-.41.2.46.51,1.37.76,2.87.26,1.64.77,4.77,3.36,5.66.21-.63.8-1.09,1.51-1.09s1.3.46,1.51,1.09c2.55-.86,3.07-3.91,3.36-5.67.24-1.49.56-2.39.78-2.86,0,0-.01,0-.02,0-.34.02-.84.1-1.35.4-1.21.7-1.79,2.34-2.04,3.39Z"/>
        <path class="cls-2" d="m105.36,185.66c0-.59-.48-1.07-1.07-1.07s-1.07.48-1.07,1.07.48,1.07,1.07,1.07,1.07-.48,1.07-1.07Z"/>
        <path class="cls-2" d="m69.9,182.54c.7,0,1.29.46,1.51,1.09,2.53-.87,3.05-3.9,3.34-5.66.24-1.5.56-2.4.78-2.87-.34.02-.85.1-1.37.41-.92.53-1.64,1.73-2.04,3.39.16.13.26.33.26.57,0,.4-.28.71-.65.71s-.65-.31-.65-.71c0-.29.15-.54.38-.65,0-.93,0-3.75-1.59-3.75-.32,0-.59.11-.81.33-.53.54-.79,1.68-.78,3.42.23.11.38.36.38.65,0,.39-.29.71-.65.71s-.65-.31-.65-.71c0-.24.1-.44.26-.57-.4-1.66-1.12-2.85-2.03-3.38-.53-.31-1.03-.39-1.35-.41.2.46.51,1.37.76,2.87.26,1.64.77,4.79,3.37,5.67.21-.63.8-1.09,1.51-1.09Z"/>
        <path class="cls-2" d="m70.97,184.13c0-.59-.48-1.07-1.07-1.07s-1.07.48-1.07,1.07.48,1.07,1.07,1.07,1.07-.48,1.07-1.07Z"/>
        <path class="cls-2" d="m35.64,184.06c.7,0,1.3.46,1.51,1.09,2.55-.86,3.07-3.91,3.36-5.67.24-1.5.57-2.4.78-2.87-.34.01-.85.1-1.37.41-1.21.7-1.79,2.34-2.04,3.39.16.13.26.33.26.57,0,.4-.28.71-.65.71s-.65-.31-.65-.71c0-.29.15-.54.38-.65,0-.93,0-3.75-1.59-3.75-.32,0-.59.11-.81.33-.53.54-.79,1.69-.78,3.42.22.11.38.36.38.65,0,.39-.3.71-.65.71s-.65-.31-.65-.71c0-.24.1-.44.26-.57-.4-1.66-1.12-2.85-2.04-3.38-.52-.31-1.03-.39-1.35-.41.2.46.51,1.37.76,2.87.26,1.64.77,4.77,3.36,5.66.21-.63.81-1.09,1.51-1.09Z"/>
        <path class="cls-2" d="m36.7,185.66c0-.59-.48-1.07-1.07-1.07s-1.07.48-1.07,1.07.48,1.07,1.07,1.07,1.07-.48,1.07-1.07Z"/>
        <path class="cls-2" d="m132.3,128.18l.28.06-2.5,8.62c.23.08.46.15.68.24l2.73-9.41-1.04-.22c-4.77-1.02-9.67-1.53-14.58-1.53-1.28,0-2.56.05-3.84.12l-.05.74c6.16-.34,12.34.11,18.31,1.38Z"/>
        <path class="cls-2" d="m7.26,128.24l.28-.06c5.95-1.27,12.12-1.72,18.26-1.38l-.05-.74c-1.27-.07-2.53-.12-3.79-.12-4.91,0-9.81.51-14.58,1.53l-1.04.22,2.72,9.39c.23-.09.45-.16.68-.24l-2.49-8.61Z"/>
        <path class="cls-2" d="m98.09,154.43c.23.2.47.38.74.54.17.1.36.19.54.27.59.26,1.24.44,1.89.57.18.03.36.06.53.09.75.11,1.47.16,2.07.18.19,0,.37,0,.53,0,.17,0,.32,0,.46,0,.53,0,1.08-.02,1.64-.04.18,0,.35-.01.53-.02.62-.03,1.25-.08,1.89-.13.18-.01.36-.03.53-.05.24-.02.48-.05.73-.07,1.06-.1,2.12-.21,3.17-.32,2.48-.27,4.82-.52,6.59-.52.87,0,1.54.06,2.01.18,3.8.99,5.06,2.5,5.98,4.04.27-.05.53-.09.76-.13-.98-1.68-2.3-3.49-6.56-4.6-1.74-.45-5.2-.08-8.86.32-5.76.63-12.28,1.33-14.72-.86-.67-.6-1.01-1.4-1.01-2.37v-1.47c-.24.09-.48.17-.72.26v1.21c0,1.32.52,2.26,1.28,2.92Z"/>
        <path class="cls-2" d="m129.88,137.56c3.12,1.04,6.08,3.35,7.79,6.14,1.51,2.46,1.78,5.45.9,8.24l.68.23-.15.45c1.13-3.12.89-6.52-.81-9.3-1.68-2.74-4.49-5.04-7.53-6.22-.23-.09-.45-.16-.68-.24l-.2.7Z"/>
        <path class="cls-2" d="m1.2,151.87c-.85-2.77-.58-5.73.92-8.17,1.72-2.8,4.7-5.12,7.83-6.16l-.2-.7c-.23.07-.46.15-.68.24-3.05,1.18-5.88,3.49-7.57,6.23-1.74,2.83-1.95,6.3-.75,9.47l-.23-.69.68-.23Z"/>
        <path class="cls-2" d="m41.26,153.87c-2.44,2.19-8.97,1.48-14.72.86-3.66-.4-7.12-.77-8.86-.32-4.26,1.11-5.58,2.92-6.56,4.6.22.04.48.09.76.13.92-1.53,2.19-3.04,5.98-4.03.47-.12,1.14-.18,2.01-.18,1.77,0,4.11.25,6.59.52,1.05.11,2.12.22,3.17.33.24.02.48.05.73.07.18.02.36.03.53.05.65.05,1.29.1,1.92.13.18,0,.35.01.53.02.55.02,1.09.04,1.61.04.13,0,.29,0,.46,0,.16,0,.34,0,.53,0,.61-.02,1.34-.07,2.1-.18.18-.03.36-.06.53-.09.64-.12,1.28-.3,1.86-.57.19-.08.37-.17.54-.27.27-.15.51-.34.74-.54.77-.67,1.28-1.6,1.28-2.92v-1.21c-.24-.09-.48-.17-.72-.26v1.47c0,.97-.34,1.76-1.01,2.37Z"/>
        <path class="cls-2" d="m139.25,152.18l-.68-.23c-.05.16-.1.31-.16.47l-1.2,3.67-5.07,14.21c-1.04,2.92-3.46,4.84-6.99,5.53-2.32.47-3.8.53-5.1.53-.27,0-.53,0-.8,0-.26,0-.53,0-.8,0-3.4,0-6.83-.29-10.14-.58l-1.3-.11c-24.4-1.88-49.81-1.88-74.22,0l-1.3.11c-3.32.28-6.74.58-10.14.58-.27,0-.54,0-.8,0-1.51.02-3.09.03-5.89-.53-3.53-.69-5.95-2.61-6.99-5.53l-5.07-14.2-1.19-3.54c-.08-.22-.16-.45-.23-.68l-.68.23.23.69,1.19,3.54.85,2.37,4.22,11.83c1.12,3.13,3.79,5.26,7.53,6,2.4.48,3.93.55,5.23.55h1.6c2.44-.01,4.88-.16,7.28-.35.26-.02.53-.04.79-.06.68-.06,1.36-.11,2.04-.17.03,0,.06,0,.09,0l1.04-.09.25-.02c.28-.02.56-.04.84-.06.38-.03.77-.05,1.16-.08.45-.03.9-.06,1.34-.09.38-.03.77-.05,1.15-.08.64-.04,1.28-.09,1.92-.13,1.36-.09,2.72-.17,4.08-.25,6.45-.35,12.94-.57,19.44-.67.28,0,.55,0,.83,0,.72,0,1.45-.01,2.17-.02.4,0,.8,0,1.2-.01.27,0,.53,0,.8,0,.31,0,.63,0,.94,0,.39,0,.79-.01,1.18-.01.36,0,.73,0,1.1.01.31,0,.62,0,.93,0,.27,0,.55,0,.82,0,.4,0,.8,0,1.19.01.73,0,1.47.01,2.2.02.29,0,.57,0,.86,0,6.58.1,13.16.32,19.69.68,1.32.07,2.63.16,3.95.24.63.04,1.26.08,1.89.13.39.03.77.05,1.16.08.45.03.9.06,1.35.09.4.03.8.05,1.2.08.23.02.47.03.71.05l.34.03.95.08c.06,0,.12,0,.17.01.49.04.99.08,1.48.12,0,0,.01,0,.02,0,.19.02.38.03.57.05.27.02.54.04.81.06,2.36.18,4.75.33,7.14.33h1.6c1.3.01,2.83-.05,5.23-.54,3.74-.73,6.42-2.86,7.53-6l5.08-14.23,1.2-3.68.15-.45Z"/>
        <path class="cls-2" d="m128.69,159.01c-.22.04-.49.09-.76.13-.4.07-.8.13-1.08.16-.74.09-2.41.24-3.98.36-1.67.12-3.3.18-4.98.18s-3.25-.06-4.82-.18c-.71-.06-1.42-.12-2.09-.17-.3-.03-.6-.05-.91-.07-.24-.02-.48-.04-.72-.06-.18-.01-.35-.03-.53-.04-.62-.05-1.24-.1-1.85-.15-.18-.01-.35-.03-.53-.04-.1,0-.2-.02-.3-.02-.57-.04-1.15-.07-1.73-.11-.18-.01-.36-.02-.53-.04-.67-.05-1.34-.09-2.01-.13-.18-.01-.36-.02-.53-.04-.61-.04-1.22-.08-1.84-.12-.18-.01-.36-.02-.53-.04-.24-.01-.48-.03-.72-.05-2.7-.16-5.4-.29-8.07-.39-4.72-.21-9.51-.32-14.29-.37-.24,0-.48,0-.72,0-.18,0-.35,0-.53,0-.62,0-1.23-.02-1.85-.02-.13,0-.25,0-.38,0-.05,0-.1,0-.15,0-.68-.01-1.37-.01-2.06-.01-.08,0-.16,0-.24,0-.1,0-.19,0-.29,0-.68,0-1.36,0-2.03.01-.04,0-.08,0-.12,0-.14,0-.28,0-.41,0-.62,0-1.24.02-1.87.02-.18,0-.35,0-.53,0-.24,0-.48,0-.72,0-4.77.05-9.55.16-14.25.37-2.69.11-5.41.24-8.12.4-.24.01-.48.03-.73.05-.18.01-.35.02-.53.04-.61.04-1.21.08-1.82.12-.18.01-.36.02-.53.04-.68.04-1.36.09-2.03.13-.18.01-.36.02-.53.04-.56.04-1.12.07-1.68.11-.11,0-.21.02-.32.03-.18.01-.35.03-.53.04-.63.05-1.25.1-1.87.15-.18.01-.35.03-.53.04-.24.02-.48.04-.72.06-.28.02-.56.04-.84.07-.71.05-1.41.11-2.11.17-1.58.12-3.21.18-4.83.18s-3.32-.06-4.98-.18c-1.58-.12-3.25-.27-3.99-.36-.29-.03-.71-.1-1.12-.17-.28-.05-.54-.09-.76-.13-.09.15-.17.29-.25.44-.04.08-.09.15-.13.22.55.11,1.61.29,2.18.36.72.09,2.38.24,4.02.36,1.68.12,3.33.18,5.03.18s3.28-.06,4.88-.18c.7-.06,1.4-.12,2.1-.17,1.61-.15,3.21-.27,4.83-.4,5.29-.39,10.65-.7,15.95-.91,5.85-.26,11.83-.4,17.76-.41,1.61-.03,3.26-.03,4.87,0,5.93.02,11.9.15,17.76.41,5.29.21,10.66.52,15.95.91,1.62.12,3.22.24,4.83.4.69.04,1.4.11,2.1.17,1.6.12,3.24.18,4.88.18s3.35-.06,5.04-.18c1.65-.12,3.3-.28,4.02-.36.55-.07,1.58-.25,2.14-.35-.04-.08-.09-.15-.13-.23-.08-.14-.16-.29-.25-.43Z"/>
        <path class="cls-2" d="m129.38,137.39l2.53-8.75c-5.86-1.22-11.91-1.65-17.95-1.31l-.21,3.37c0,.19-.02,2.96-1.33,6.39,1.31-.06,2.62-.17,3.91-.27,4.25-.35,8.65-.7,13.04.57Z"/>
        <path class="cls-2" d="m131.91,128.65l-2.53,8.75s.05.01.08.02c.14.04.28.1.43.15l.2-.7,2.5-8.62-.28-.06c-5.97-1.27-12.15-1.73-18.31-1.38l-.03.53c6.04-.34,12.1.09,17.95,1.31Z"/>
        <path class="cls-2" d="m7.93,128.65l2.53,8.74c4.38-1.26,8.76-.9,13-.56,1.29.11,2.6.21,3.91.27-1.32-3.45-1.34-6.24-1.34-6.47l-.2-3.29c-6.02-.34-12.07.09-17.91,1.31Z"/>
        <path class="cls-2" d="m10.34,137.41s.08-.02.12-.03l-2.53-8.74c5.84-1.22,11.88-1.65,17.91-1.31l-.03-.53c-6.15-.34-12.31.11-18.26,1.38l-.28.06,2.49,8.61.2.7c.13-.04.26-.1.39-.13Z"/>
        <path class="cls-2" d="m137.68,143.7c-1.71-2.79-4.67-5.1-7.79-6.14-.14-.05-.28-.11-.43-.15-.03,0-.05-.01-.08-.02-4.39-1.27-8.79-.91-13.04-.57-1.29.11-2.6.21-3.91.27-.07.18-.14.36-.22.54,1.4-.06,2.79-.17,4.17-.28,4.23-.34,8.6-.7,12.93.57,3.15.92,6.19,3.25,7.91,6.06,1.43,2.32,1.68,5.15.84,7.8l.5.17-.15.46c.06-.16.11-.31.16-.47.88-2.79.61-5.78-.9-8.24Z"/>
        <path class="cls-2" d="m98.54,153.87c2.44,2.19,8.96,1.48,14.72.86,3.66-.4,7.12-.77,8.86-.32,4.26,1.11,5.58,2.92,6.56,4.6.08.14.17.29.25.43.04.08.09.16.13.23.19-.04.33-.07.37-.08h.08c2.54-.63,4.81-2.04,6.46-3.98.45-.51.84-1.11,1.22-1.83-.35.64-.77,1.25-1.26,1.83-1.62,1.91-3.85,3.3-6.33,3.94-.07-.12-.14-.25-.21-.37-1.07-1.89-2.29-4.02-7.13-5.28-.61-.16-1.4-.22-2.33-.22-1.86,0-4.25.26-6.72.53-5.65.61-12.05,1.31-14.31-.73-.56-.5-.84-1.15-.84-1.97v-1.66c-.18.07-.35.13-.53.19v1.47c0,.97.34,1.76,1.01,2.37Z"/>
        <path class="cls-2" d="m1.71,151.7c-.81-2.62-.55-5.42.87-7.72,1.73-2.81,4.76-5.13,7.91-6.06,2.31-.68,4.63-.89,6.94-.89,2.02,0,4.02.16,6,.32,1.38.11,2.77.22,4.17.28-.08-.18-.15-.36-.22-.54-1.31-.06-2.62-.17-3.91-.27-4.24-.35-8.62-.7-13,.56-.04.01-.08.02-.12.03-.13.04-.26.09-.39.13-3.14,1.03-6.11,3.35-7.83,6.16-1.5,2.44-1.77,5.4-.92,8.17.07.23.15.45.23.68l-.23-.67.5-.17Z"/>
        <path class="cls-2" d="m40.9,153.47c-2.26,2.03-8.66,1.34-14.31.73-3.71-.4-7.22-.78-9.05-.3-4.85,1.26-6.06,3.4-7.14,5.29-.07.12-.14.24-.21.36.02,0,.05.01.07.02l.14.04s.16.04.33.07c.04-.07.09-.15.13-.22.08-.14.17-.29.25-.44.98-1.68,2.3-3.49,6.56-4.6,1.74-.45,5.2-.08,8.86.32,5.75.63,12.28,1.33,14.72-.86.67-.6,1.01-1.4,1.01-2.37v-1.47c-.18-.07-.35-.12-.53-.19v1.66c0,.82-.27,1.46-.84,1.97Z"/>
        <path class="cls-2" d="m8.15,158.83c-.2-.09-.4-.18-.59-.28.19.1.39.19.59.28Z"/>
        <path class="cls-2" d="m2.46,153.55s-.03-.06-.04-.09c.01.03.03.06.04.09Z"/>
        <path class="cls-2" d="m7.38,158.45c-.22-.12-.44-.24-.66-.37.21.13.43.25.66.37Z"/>
        <path class="cls-2" d="m9.86,159.45c-.18-.05-.37-.1-.55-.16.18.06.37.11.55.16Z"/>
        <path class="cls-2" d="m3.86,155.61c-.54-.64-1-1.31-1.37-2.02.38.75.81,1.37,1.37,2.02.81.95,1.76,1.77,2.82,2.43-1.05-.66-2.01-1.48-2.81-2.43Z"/>
        <path class="cls-2" d="m8.97,159.16c-.19-.07-.38-.13-.56-.21.18.08.37.14.56.21Z"/>
        <path class="cls-2" d="m27.99,167.36c.22-.41.29-.96.21-1.64-.09-.72-.31-1.27-.65-1.63-.32-.33-.72-.5-1.23-.5-.04,0-.08,0-.12,0l-.51.03.56,4.41.7-.04c.49-.03.83-.23,1.05-.63Z"/>
        <path class="cls-2" d="m131.65,170.11l5.27-14.82c-.17.24-.34.46-.53.67-1.72,2.03-4.1,3.49-6.68,4.12-.04.01-.08.03-.14.04-.32.08-1.87.36-2.57.44-.72.09-2.39.24-4.04.37-1.7.12-3.36.18-5.08.18s-3.31-.06-4.92-.18c-.7-.06-1.4-.12-2.1-.17-1.62-.15-3.22-.27-4.83-.4-5.28-.4-10.64-.7-15.93-.91-5.85-.26-11.82-.4-17.74-.41-1.62-.03-3.26-.03-4.87,0-5.93.02-11.9.15-17.74.41-5.29.21-10.65.52-15.93.91-1.61.12-3.21.24-4.82.39-.71.05-1.4.11-2.1.17-1.62.12-3.27.18-4.93.18s-3.38-.06-5.07-.18c-1.66-.13-3.32-.28-4.05-.37-.7-.08-2.25-.36-2.57-.44-.06,0-.11-.02-.14-.03-2.59-.63-4.96-2.09-6.69-4.12-.19-.22-.36-.43-.52-.65l.2.61,5.07,14.2c.97,2.74,3.25,4.53,6.59,5.19,2.75.55,4.22.54,5.78.52.27,0,.53,0,.8,0,3.37,0,6.79-.29,10.09-.57l1.3-.11c12.22-.94,24.72-1.42,37.15-1.42s24.93.48,37.15,1.42l1.3.11c3.3.28,6.72.57,10.09.57.27,0,.54,0,.8,0,1.56.02,3.03.03,5.78-.52,3.34-.66,5.62-2.45,6.59-5.19Zm-116.75,3.47c-.24.31-.56.47-.97.47-.34,0-.74-.11-1.2-.32-.4-.19-.78-.44-1.12-.75-.46-.42-.6-.5-.63-.52-.04-.01-.07-.01-.1.02-.03.04-.05.07-.06.1l-.03.07-.8-.37v-.04s-.63-3.52-.63-3.52l.49.23c.12.06.21.11.28.16.07.05.13.12.19.21.16.34.3.66.45.99.19.42.38.84.58,1.25.4.63.85,1.07,1.35,1.3.4.18.66.17.82-.03.16-.22.2-.61.11-1.16-.15-.87-.6-1.76-1.35-2.62-.71-.77-1.43-1.54-2.14-2.31-.8-.98-1.31-2.01-1.5-3.06-.14-.78-.01-1.36.37-1.73.39-.37.97-.39,1.72-.05.37.17.72.4,1.06.72.42.39.53.47.55.48.05.02.1.02.16-.01.01,0,.04-.04.07-.06l.05-.05.62.28v.04s.55,3.3.55,3.3l-.43-.2c-.12-.06-.21-.1-.26-.14-.05-.04-.1-.09-.16-.17v-.02c-.31-.86-.62-1.57-.92-2.13-.32-.59-.72-.99-1.18-1.2-.29-.13-.52-.15-.68-.04-.19.12-.25.41-.18.85.13.72.61,1.56,1.43,2.48l1.05,1.14c.41.44.82.89,1.23,1.33.85,1.05,1.36,2.09,1.53,3.09.14.88.04,1.56-.31,2.01Zm5.68.66v-.07c-.02-.08-.03-.16-.04-.23v-.03c-.03-.18,0-.32.08-.41.06-.06.14-.11.28-.14.09-.02.15-.06.18-.11.03-.05.04-.11.03-.19,0-.06-.02-.12-.04-.18-.08-.16-.14-.28-.17-.35-.24-.55-.48-1.11-.72-1.66l-2.64.05-.04.41c-.03.32-.07.63-.1.95-.01.1-.02.17-.01.22,0,.17,0,.33.02.49l.02.12c.02.14.09.23.19.27l.17.07c.08.03.15.06.23.09h.02c.06.06.1.11.12.17.02.05.03.12.05.23,0,.04.01.09.02.13,0,.04.01.09.02.13v.09s-2.57.05-2.57.05l-.06-.37c-.03-.21.01-.34.12-.43.04-.04.1-.07.17-.08.02,0,.07-.03.19-.15.09-.09.16-.26.21-.53.02-.08.03-.2.06-.4.3-2.8.61-5.56.92-8.19-.08-.15-.16-.3-.23-.45-.02-.04-.03-.08-.05-.13-.03-.05-.04-.1-.04-.13,0-.04,0-.1.03-.17.05-.12.15-.19.29-.24l1.21-.41.03.06c1.52,3.36,3,6.7,4.41,9.94l.04.09s.03.07.04.09c.07.13.13.22.19.28.05.05.13.1.26.15.15.06.23.1.27.14.11.14.18.3.21.49l.04.28-3.38.07Zm8.76-6.17c-.51.46-1.17.72-1.97.76l-.99.05.48,3.78c.02.15.04.27.07.37.02.08.07.15.13.22.04.04.09.06.17.08.11.02.18.05.22.08.11.06.19.18.21.34l.05.41-3.14.17v-.07c-.02-.1-.04-.19-.05-.29v-.02c-.01-.07-.02-.12-.01-.16,0-.07.03-.13.08-.18.05-.06.11-.1.2-.14.17-.07.21-.11.21-.12.02-.03.04-.07.04-.12,0-.06,0-.12,0-.19v-.11s-.02-.07-.03-.09l-.12-.92c-.35-2.61-.69-5.22-1.04-7.82-.01-.08-.02-.14-.04-.18-.01-.04-.04-.08-.07-.11-.03-.03-.09-.06-.15-.07-.1-.02-.19-.06-.27-.12-.09-.06-.14-.17-.16-.31l-.05-.37,3.66-.19c.09,0,.17,0,.26,0,.79,0,1.45.19,1.96.58.65.48,1.03,1.26,1.16,2.3.12,1.06-.14,1.89-.8,2.48Zm5.27,5.55l-2.87.25v-.07c-.02-.11-.03-.21-.05-.32v-.19c0-.11.05-.17.09-.2.05-.04.11-.07.2-.09.06-.01.11-.04.15-.1.04-.05.07-.13.07-.24,0-.13,0-.25-.02-.34l-.09-.77c-.29-2.56-.57-5.11-.86-7.66l-.02-.19c-.01-.1-.03-.19-.04-.27-.01-.05-.04-.09-.07-.13-.03-.03-.09-.05-.17-.06-.1-.01-.18-.04-.25-.08-.07-.05-.1-.11-.11-.18,0-.05-.02-.08-.03-.12l-.04-.37h.08s3.08-.26,3.08-.26v.07c.02.11.03.22.04.33v.04s0,.07-.01.1c-.02.09-.07.16-.16.2-.06.03-.11.06-.16.08h-.03s-.09.07-.13.12c-.04.05-.06.13-.06.24,0,.14,0,.26,0,.36l.93,8.67c0,.06.01.13.03.19.02.08.04.11.06.12.03.02.08.04.14.06.08.02.14.05.2.09.07.05.12.11.13.19.01.05.02.11.03.17v.02c.01.09.02.19.03.28v.08s-.07,0-.07,0Zm7.29-.51l-6.45.44v-.07c-.02-.11-.03-.21-.04-.32-.01-.13-.01-.17,0-.19.01-.08.04-.14.1-.19.05-.04.11-.08.2-.12.09-.03.14-.07.17-.1,0,0,.04-.04.05-.22,0-.03,0-.1-.01-.2l-.28-2.79c-.2-1.97-.4-3.94-.6-5.91-.02-.18-.04-.28-.04-.28,0-.02-.04-.06-.08-.09-.05-.04-.14-.08-.22-.1-.11-.04-.2-.08-.25-.14-.06-.06-.09-.16-.1-.29l-.04-.4h.08s5.14-.34,5.14-.34c.08,0,.16-.01.25-.02.08,0,.16-.03.26-.07.1-.04.16-.07.2-.1.02-.01.08-.06.18-.15l.11-.09v.15c.06.57.11,1.13.16,1.7.05.57.1,1.13.15,1.7v.08s-.35.02-.35.02c-.1,0-.2,0-.26,0-.07-.01-.14-.04-.21-.1l-.02-.03c-.17-.38-.32-.72-.44-1.01l-.13-.31c-.15-.34-.33-.56-.53-.68-.12-.06-.25-.1-.39-.1-.16,0-.31-.01-.43,0l-1.14.08.4,4.15.54-.04c.17-.01.3-.04.41-.09.1-.05.19-.11.25-.19.09-.11.13-.23.14-.36,0-.15.04-.26.1-.34.05-.07.12-.12.19-.14.05-.01.09-.02.12-.03h.03s.43-.03.43-.03v.07c.09.98.18,1.95.27,2.93v.08s-.34.02-.34.02c-.1,0-.18,0-.24-.01-.08-.02-.15-.05-.22-.11-.08-.06-.14-.17-.19-.34-.04-.14-.14-.28-.29-.44-.08-.08-.17-.12-.28-.12-.12,0-.24,0-.36,0l-.45.03.44,4.59,1.05-.07c.15-.01.27-.02.36-.03.55-.1.93-.29,1.14-.58.15-.22.25-.68.3-1.37.03-.34.09-.57.19-.71.04-.06.09-.1.16-.13.06-.03.16-.05.29-.05l.36-.02.3,3.58h-.08Zm6.41-.33l-.02-.04c-1.5-3-3.06-6.04-4.64-9.04l.57,7.46c.01.13.03.23.04.29.04.2.11.33.18.39.08.07.17.11.27.14.12.03.21.08.28.14.06.06.11.12.13.19.02.06.04.14.05.25,0,.11.02.21.02.32v.08s-.07,0-.07,0l-2.44.12-.03-.39c-.01-.15,0-.24.01-.3.01-.05.05-.1.11-.15.05-.04.13-.1.24-.18.06-.03.1-.07.12-.12.05-.09.09-.18.1-.29,0-.09.01-.2,0-.27,0-.03,0-.07-.01-.11l.07-.03h-.08s0-.01,0-.03c-.22-2.7-.43-5.41-.64-8.12-.01-.13-.03-.24-.06-.33-.03-.08-.06-.14-.1-.17-.04-.03-.11-.06-.19-.07-.1-.02-.19-.04-.25-.08-.07-.04-.11-.09-.14-.15-.03-.05-.04-.12-.05-.22l-.03-.39h.08s2.7-.13,2.7-.13l.02.04c1.26,2.39,2.53,4.83,3.77,7.27l-.37-5.75c-.01-.19-.04-.36-.1-.48-.05-.12-.14-.24-.28-.34-.02-.02-.05-.04-.14-.07-.08-.03-.15-.07-.2-.13-.06-.09-.1-.2-.11-.33,0-.04,0-.08,0-.13,0-.04,0-.09,0-.13v-.08s.07,0,.07,0l2.3-.11v.07c.01.11.02.21.02.32,0,.12-.03.23-.12.31l-.11.07s-.08.05-.1.06c-.02,0-.04.04-.07.08-.08.09-.12.17-.15.26-.02.09-.03.22-.02.35.1,1.64.2,3.28.3,4.91.1,1.64.2,3.28.3,4.91v.08s-1.22.06-1.22.06Zm8.95-8.52h-.02c-.2,0-.36-.09-.45-.26-.04-.06-.12-.25-.36-1.09-.12-.42-.29-.69-.49-.81-.1-.06-.19-.09-.28-.11-.09-.01-.21-.02-.36-.01-.05,0-.09,0-.12,0h-.4s.4,8.96.4,8.96c0,.06.02.13.03.21v.09c.02.09.05.16.1.22.04.05.12.09.23.11.13.03.23.06.29.1.07.04.11.1.14.18.02.08.04.16.04.24l.02.39-3.49.12-.02-.35s0-.1,0-.17c0-.08.03-.16.1-.25.07-.08.17-.14.32-.18.11-.03.19-.07.22-.1.06-.07.1-.14.11-.22.01-.09.01-.2,0-.36-.14-2.86-.29-5.72-.43-8.58l-.02-.33-.52.02c-.16,0-.29.02-.4.05-.1.03-.19.09-.27.18-.2.23-.32.58-.38,1.07-.08.69-.14.85-.18.91-.04.06-.11.11-.21.14-.1.03-.18.04-.27.04h-.41s0-.06,0-.06c-.04-.73-.08-1.46-.13-2.19l-.07-1.25.12.06c.08.04.15.06.22.08.08.02.18.04.33.08.14.04.28.04.4.05.13,0,.23,0,.3-.01l4.89-.16c.1,0,.21-.01.33-.02.1,0,.2-.02.31-.05.19-.05.39-.14.6-.25l.11-.06v.12c.04,1.12.08,2.24.13,3.36v.08s-.43.01-.43.01Zm4.37,8.09l-2.92.06v-.39s0-.1,0-.1c0-.03,0-.06,0-.1,0-.08.04-.15.1-.19.05-.04.12-.07.21-.08.06,0,.11-.04.16-.09.04-.05.07-.12.08-.24,0-.1.01-.21,0-.34l-.28-8.63c0-.12-.01-.21-.02-.27-.01-.05-.03-.09-.06-.13-.03-.03-.09-.06-.17-.07-.11-.02-.19-.05-.25-.1-.06-.05-.09-.12-.1-.18,0-.05-.01-.09-.02-.12v-.36s3.2-.07,3.2-.07v.45s0,.07-.01.1c-.02.08-.08.15-.18.19h-.02c-.06.04-.12.06-.18.08-.04.02-.09.05-.14.1-.04.05-.07.12-.08.23-.02.13-.02.25-.03.36l.23,8.65c0,.07,0,.15.02.22,0,.06.02.1.04.11.04.03.08.05.14.07.07.03.14.06.19.1.06.05.1.12.11.2,0,.06.01.13.01.19,0,.09,0,.18,0,.27v.08s-.07.01-.07.01Zm9.15-.09h-.08l-3.33.03v-.34c0-.18.04-.31.14-.4.07-.06.16-.1.29-.13.1-.02.17-.06.2-.11.04-.06.06-.12.06-.2,0-.07,0-.13-.02-.18-.06-.15-.1-.27-.12-.36-.16-.55-.33-1.1-.49-1.65l-2.66.02c-.11.45-.22.91-.33,1.36-.03.11-.04.17-.05.22-.03.21-.05.36-.04.48,0,.04,0,.07,0,.09v.03c0,.14.05.23.15.27l.08.03c.1.04.2.08.3.12h.02c.05.06.09.11.1.18.01.05.02.13.02.23,0,.04,0,.09,0,.13,0,.04,0,.09,0,.13v.08h-.08l-2.52.02v-.38c-.01-.2.05-.34.17-.41.06-.04.12-.07.18-.08.02,0,.07-.03.22-.15.1-.09.21-.28.3-.54.03-.1.07-.23.11-.39.67-2.69,1.36-5.44,2.07-8.16l-.17-.45s-.02-.08-.04-.13c-.02-.06-.03-.1-.03-.14,0-.04.01-.09.05-.16.07-.11.17-.18.32-.22l1.27-.4.02.07c1.02,3.25,2.05,6.6,3.05,9.97.01.05.03.09.04.13l.02.06c.06.15.11.23.15.28.05.05.13.11.23.15.16.07.23.11.26.15.1.13.15.3.14.49v.27Zm15.15-3.28l-.16,3.51-7.18-.14.03-.1c.03-.09.06-.18.08-.26.05-.17.14-.3.27-.38.2-.08.38-.15.56-.22.06-.06.1-.12.12-.18.03-.07.04-.15.04-.24,0-.08,0-.16,0-.22v-.1c.02-.54.03-1.09.05-1.63l-2.77-.06c-.26.46-.52.91-.78,1.37-.07.12-.12.22-.16.29-.12.23-.19.38-.21.47-.03.13-.03.16-.03.16,0,.05.01.11.15.18.18.08.23.12.26.15.04.04.06.1.06.17,0,.05,0,.09-.01.12v.03s-.03.07-.05.1l-.1.31-2.6-.05.12-.4c.07-.19.17-.32.31-.39.06-.04.12-.06.19-.07.03,0,.1-.03.28-.16.14-.09.3-.26.48-.53.05-.07.13-.19.25-.39,1.6-2.71,3.24-5.42,4.87-8.06l-.03-.23c-.16-.09-.27-.16-.34-.21h-.02c-.07-.09-.14-.17-.2-.25l-.13-.15.05-.05s.06-.11.07-.21c0-.01,0-.03,0-.04,0-.01,0-.03,0-.04l-.06-.11h.12s5.27.11,5.27.11h.26c.08,0,.18-.02.3-.06.12-.04.25-.1.37-.19l.13-.09-.16,3.62h-.34c-.13,0-.22-.02-.26-.03-.06-.01-.13-.05-.2-.12h-.01s0-.03,0-.03c-.16-.54-.3-1-.41-1.37-.1-.35-.25-.59-.45-.72-.11-.07-.25-.12-.39-.14-.14-.02-.28-.03-.42-.04l-1.16-.02c-.05,1.39-.09,2.78-.14,4.17h.55c.14.01.24,0,.33-.02.16-.04.28-.11.38-.21.1-.1.15-.21.18-.33.03-.15.07-.26.14-.33.07-.07.14-.11.21-.12l.13-.02h.45s0,.19,0,.19c-.04.94-.07,1.89-.11,2.83v.07s-.35,0-.35,0c-.1,0-.18-.01-.24-.03-.06-.02-.13-.05-.21-.12-.03-.03-.08-.1-.16-.42-.03-.12-.11-.26-.23-.41-.06-.08-.18-.13-.36-.17-.06,0-.15-.01-.28-.02h-.45c-.05,1.49-.1,3-.15,4.5v.07s1.06.02,1.06.02c.16,0,.29,0,.37,0,.56-.05.97-.21,1.22-.48.18-.2.34-.65.49-1.34.07-.33.16-.55.28-.69.04-.05.1-.09.17-.11.06-.02.14-.03.26-.03h.4s0,.08,0,.08Zm8.35-1.78c-.13,1.81-.6,3.2-1.39,4.14-.76.89-1.76,1.34-3,1.34-.07,0-.14,0-.21,0l-3.41-.14v-.08c.02-.09.02-.18.03-.27v-.02c0-.11.02-.19.04-.25.02-.07.08-.13.18-.17.03,0,.08-.02.17-.04.07-.01.13-.04.19-.09.06-.05.09-.1.1-.15,0-.04.02-.15.03-.34l.14-2.86c.09-1.9.19-3.81.28-5.71,0-.11,0-.24,0-.3,0-.04-.03-.09-.09-.15-.06-.06-.12-.09-.17-.1-.1-.02-.17-.05-.22-.09-.07-.05-.11-.12-.12-.2,0-.06,0-.12,0-.19l.02-.38,3.58.15c1.41.06,2.47.67,3.14,1.83.6,1.04.85,2.42.73,4.1Zm3.76-4.66s-.08.12-.11.23c-.03.14-.05.25-.06.36-.11,1.44-.23,2.88-.34,4.32-.11,1.44-.23,2.88-.34,4.32,0,.07-.01.15,0,.22,0,.06.01.1.03.12.03.03.07.05.13.08.07.03.14.07.18.12.06.06.09.13.09.21,0,.06,0,.13,0,.19,0,.04,0,.09-.01.13,0,.05,0,.09-.01.14v.08s-2.99-.17-2.99-.17l.03-.39s.01-.07.02-.1c0-.03.01-.06.01-.09.02-.09.06-.15.12-.19.06-.03.13-.05.21-.06.06,0,.12-.03.17-.08.05-.04.09-.12.11-.23.02-.13.04-.24.04-.34l.63-8.52s0-.09,0-.11c0-.12.01-.21,0-.27,0-.05-.02-.09-.05-.13-.03-.04-.08-.07-.16-.09-.12-.03-.19-.07-.24-.12-.05-.05-.08-.12-.08-.19,0-.05,0-.09,0-.12l.03-.37h.07s3.12.17,3.12.17l-.04.46s0,.02-.01.03c0,.02-.01.04-.02.06-.03.08-.09.14-.19.17-.07.02-.14.04-.21.06-.05.01-.1.04-.15.09Zm6.62,2.72c-.08-.01-.14-.07-.2-.15-.02-.03-.08-.12-.22-.97-.08-.54-.25-.89-.48-1.07-.07-.05-.19-.11-.33-.15-.16-.05-.31-.08-.46-.09l-1.23-.08c-.06.69-.12,1.38-.19,2.08-.06.69-.12,1.38-.19,2.07l.8.05c.18.01.33,0,.43-.03.1-.03.19-.08.28-.16.08-.08.15-.2.21-.36.07-.18.14-.31.23-.38.04-.04.11-.06.19-.07.05,0,.08,0,.11,0h.03s.38.02.38.02l-.03.32c-.09.9-.17,1.8-.26,2.7v.07s-.35-.02-.35-.02c-.06,0-.13-.01-.21-.02-.1-.01-.18-.06-.24-.15-.02-.02-.05-.08-.09-.39-.02-.19-.1-.34-.22-.45-.08-.07-.18-.12-.3-.14-.15-.03-.28-.05-.38-.06l-.66-.04-.37,4.07c0,.05,0,.12,0,.2s.03.15.09.21c.07.07.15.11.25.14.12.03.2.06.24.09.07.05.1.12.1.23v.05c0,.06,0,.11-.01.17,0,.05-.01.1-.01.15,0,.05,0,.1-.01.15v.07s-3.25-.22-3.25-.22v-.08c.02-.13.03-.26.04-.39.01-.14.06-.24.13-.3.07-.05.15-.09.24-.11.07-.01.14-.04.22-.1.06-.04.11-.13.14-.25,0,0,0-.03,0-.07,0-.04,0-.08.01-.12l.73-8.61s0-.07,0-.1c0-.02,0-.03,0-.05.01-.12,0-.19-.05-.24-.05-.06-.12-.1-.21-.14-.11-.05-.18-.08-.21-.1-.05-.03-.09-.08-.12-.15-.02-.07-.02-.13-.02-.2l.03-.39h.07s4.61.3,4.61.3c.03,0,.06,0,.08,0,.16.01.34.01.51,0,.21,0,.37-.02.49-.04.19-.04.37-.09.54-.15l.11-.04-.36,3.53-.48-.03c-.05,0-.1-.01-.16-.02Zm4.54-2.14l-.2.06c-.06.02-.11.05-.15.09-.05.04-.09.12-.11.23-.03.13-.06.25-.07.35l-.09.78c-.29,2.62-.58,5.25-.87,7.87,0,.07-.01.15-.01.22,0,.06,0,.1.03.12.03.03.08.06.13.08.07.03.13.07.18.12.06.05.09.12.09.21,0,.07,0,.13-.01.19l-.04.35-2.96-.23.04-.39s.01-.07.02-.1c0-.03.01-.06.02-.09.02-.09.06-.15.12-.18.06-.03.13-.05.22-.06.06,0,.11-.03.17-.07.06-.05.1-.12.12-.23.03-.12.04-.24.06-.34l.89-8.52s0-.08.01-.11c.01-.12.02-.21.01-.27,0-.05-.02-.1-.04-.13-.03-.04-.08-.07-.15-.09-.11-.03-.19-.08-.23-.13-.05-.05-.07-.12-.07-.19,0-.04,0-.07,0-.1v-.03s.03-.36.03-.36l3.17.24-.05.45s-.01.04-.02.05v.03c-.05.1-.12.16-.22.18Zm6.75,9.24c-.24.59-.57,1.05-.98,1.38-.52.43-1.16.65-1.89.65-.09,0-.18,0-.28-.01-1.23-.09-2.16-.78-2.77-2.04-.57-1.19-.76-2.66-.56-4.39.19-1.7.73-3.09,1.61-4.13.79-.94,1.7-1.42,2.7-1.42.07,0,.15,0,.22,0,.41.03.77.12,1.09.29l.83.5c.1,0,.16-.03.21-.1.02-.02.04-.04.07-.12l.02-.05.75.05v.08s-.51,3.74-.51,3.74l-.34-.02c-.2-.01-.27-.05-.3-.08-.04-.03-.09-.08-.2-.19-.07-.07-.16-.26-.21-1.05-.04-.65-.12-1.12-.24-1.42-.2-.48-.55-.73-1.07-.76-.04,0-.08,0-.12,0-.68,0-1.21.41-1.61,1.25-.34.72-.61,1.85-.79,3.37-.11.91-.15,1.71-.13,2.38.03.88.18,1.58.43,2.07.3.59.74.9,1.34.94.48.04.9-.13,1.27-.49.28-.27.5-.62.69-1.07.04-.12.08-.25.12-.37.02-.08.05-.15.08-.23l.03-.1.74.54v.05c-.06.14-.1.27-.14.41-.03.11-.07.22-.1.33Zm8.51,1.64s-.01.06-.01.1c0,.03-.01.06-.01.1v.06s-3.41.08-3.41.08l.02-.09c0-.06.02-.11.03-.17v-.09c.04-.18.11-.31.21-.4.07-.06.17-.1.3-.13.11-.03.18-.07.23-.12.05-.05.08-.12.09-.21.01-.08.01-.13,0-.17-.04-.17-.06-.29-.07-.35-.07-.54-.15-1.09-.22-1.64l-2.66.06-.11.27c-.15.37-.3.74-.45,1.11l-.02.05c-.03.07-.05.13-.06.18-.06.19-.1.35-.12.48,0,.04-.01.08-.01.11v.02c-.03.2.06.24.09.25.05.02.1.04.15.07.07.03.14.06.2.09h.02c.05.06.07.12.08.18,0,.05,0,.12-.01.23v.03c-.02.08-.03.16-.04.23v.06s-2.6.06-2.6.06v-.09c.03-.1.04-.2.05-.31.03-.2.1-.33.23-.41.06-.04.12-.06.18-.08.02,0,.08-.03.25-.16.12-.09.25-.28.38-.55.05-.1.11-.25.17-.4,1.07-2.65,2.2-5.41,3.36-8.2-.03-.15-.07-.29-.1-.44,0-.05,0-.08-.01-.13,0-.05-.01-.1,0-.14,0-.04.03-.09.07-.16.08-.11.19-.18.34-.22l1.34-.42v.09c.53,3.33,1.02,6.67,1.47,9.92l.03.18c.03.12.07.21.1.27.03.05.1.1.2.14.13.06.2.1.23.15.08.14.1.31.07.5Zm5.08-11.17l-1.53,9.08c0,.06-.01.12-.01.18,0,.08,0,.14.03.18,0,0,.03.04.13.04.01,0,.03,0,.04,0,.14,0,.22,0,.28.02.04.01.11.06.12.18,0,.06,0,.14-.01.24l-.06.36h-.04c-1.08.35-2.15.69-3.22,1.02l-.24.07.06-.4c0-.05.02-.11.03-.18.02-.08.06-.16.14-.25.08-.09.18-.18.33-.25.13-.07.22-.13.26-.18.08-.09.13-.18.16-.26.03-.1.06-.22.09-.37.48-2.95.97-5.91,1.46-8.87l-.47.14c-.17.05-.31.11-.42.17-.12.06-.23.15-.33.27-.25.29-.45.69-.62,1.21-.17.56-.29.86-.37.96-.05.07-.12.13-.22.18-.09.04-.17.08-.26.11l-.46.14.02-.12.54-3.4h.08c.07.03.13.03.19.03h.32c.13,0,.26-.03.39-.07l.31-.09c1.56-.48,3.13-.95,4.71-1.43l.1-.03s.06-.02.08-.02c.1-.03.21-.07.33-.11.11-.04.22-.08.33-.14.21-.11.43-.25.66-.42l.15-.11-.64,3.59-.4.12c-.31.09-.41-.06-.45-.16-.03-.06-.07-.23-.13-1.01-.03-.37-.13-.59-.29-.65-.08-.03-.16-.04-.25-.03-.1.01-.22.04-.36.09-.05.01-.1.03-.12.04l-.43.13Z"/>
        <path class="cls-2" d="m17.61,169.91l2.11-.04c-.56-1.32-1.12-2.64-1.69-3.96-.14,1.33-.28,2.67-.41,4Z"/>
        <path class="cls-2" d="m119.33,170.02l2.12-.05c-.18-1.43-.35-2.73-.51-3.96-.54,1.34-1.07,2.67-1.61,4.01Z"/>
        <path class="cls-2" d="m91.91,163.24c-.31-.69-.8-1.06-1.44-1.08l-1.18-.05-.02.4c-.17,3.07-.33,6.15-.5,9.22l1.06.04s.06,0,.1,0c.76,0,1.31-.4,1.7-1.22.34-.73.56-1.91.66-3.5.04-.66.06-1.23.04-1.68-.04-.93-.17-1.63-.41-2.14Z"/>
        <path class="cls-2" d="m77.56,167.96l2.25.04c.04-1.34.08-2.67.11-4-.79,1.31-1.59,2.64-2.36,3.96Z"/>
        <path class="cls-2" d="m64.98,167.92l2.13-.02c-.37-1.29-.76-2.63-1.15-3.98-.29,1.18-.61,2.46-.98,3.99Z"/>
        <path class="cls-2" d="m138.07,151.78h0c-.03.07-.06.16-.09.26-.06.17-.12.36-.18.49-.2.47-.39.87-.59,1.25-.38.72-.77,1.32-1.22,1.83-1.65,1.95-3.93,3.35-6.46,3.97h-.08s-.18.05-.37.09c-.56.11-1.59.29-2.14.35-.72.09-2.37.24-4.02.36-1.68.12-3.33.18-5.04.18s-3.28-.06-4.88-.18c-.7-.06-1.4-.12-2.1-.17-1.62-.15-3.22-.28-4.83-.4-5.29-.39-10.66-.7-15.95-.91-5.86-.26-11.83-.4-17.76-.41-1.61-.03-3.27-.03-4.87,0-5.93.02-11.91.15-17.76.41-5.29.21-10.66.52-15.95.91-1.62.12-3.22.24-4.83.4-.7.05-1.4.11-2.1.17-1.6.12-3.24.18-4.88.18s-3.35-.06-5.03-.18c-1.65-.12-3.3-.28-4.02-.36-.56-.07-1.63-.25-2.18-.36-.17-.03-.29-.06-.33-.07l-.14-.04s-.05-.01-.07-.02c-.11-.03-.22-.06-.34-.1-.18-.05-.37-.1-.55-.16-.11-.04-.22-.08-.33-.12-.19-.07-.38-.13-.56-.21-.09-.04-.18-.08-.27-.12-.2-.09-.4-.18-.59-.28-.06-.03-.11-.07-.17-.1-.22-.12-.44-.24-.66-.37-.02-.01-.03-.02-.05-.03-1.05-.66-2.01-1.48-2.82-2.43-.56-.64-.98-1.27-1.37-2.02,0-.01-.02-.03-.02-.04-.01-.03-.03-.06-.04-.09-.12-.24-.23-.49-.35-.76-.07-.14-.19-.52-.29-.78l-.08-.22h0s-.5.17-.5.17l.23.67,1.19,3.54,5.07,14.2c1.04,2.92,3.46,4.84,6.99,5.53,2.81.56,4.38.55,5.89.53.26,0,.53,0,.8,0,3.4,0,6.83-.29,10.14-.58l1.3-.11c24.41-1.88,49.81-1.88,74.22,0l1.3.11c3.32.28,6.74.58,10.14.58.27,0,.54,0,.8,0,.26,0,.52,0,.8,0,1.3,0,2.78-.07,5.1-.53,3.53-.69,5.95-2.61,6.99-5.53l5.07-14.21,1.2-3.67.15-.46-.5-.17Zm-18.79,24.04c-.27,0-.53,0-.8,0-3.37,0-6.79-.29-10.09-.57l-1.3-.11c-12.22-.94-24.72-1.42-37.15-1.42s-24.93.48-37.15,1.42l-1.3.11c-3.3.28-6.72.57-10.09.57-.27,0-.54,0-.8,0-1.56.02-3.03.03-5.78-.52-3.34-.65-5.62-2.45-6.59-5.19l-5.07-14.2-.2-.61c.16.22.34.43.52.65,1.73,2.03,4.1,3.5,6.69,4.12.04.01.08.03.14.03.32.08,1.87.36,2.57.44.73.09,2.39.24,4.05.37,1.7.12,3.36.18,5.07.18s3.31-.06,4.93-.18c.7-.06,1.4-.12,2.1-.17,1.61-.15,3.21-.27,4.82-.39,5.28-.4,10.64-.7,15.93-.91,5.85-.26,11.82-.4,17.74-.41,1.61-.03,3.25-.03,4.87,0,5.92.02,11.89.15,17.74.41,5.29.21,10.65.52,15.93.91,1.61.12,3.21.24,4.83.4.7.05,1.4.11,2.1.17,1.61.12,3.27.18,4.92.18s3.38-.06,5.08-.18c1.66-.13,3.32-.28,4.04-.37.7-.08,2.25-.36,2.57-.44.06,0,.1-.02.14-.04,2.59-.62,4.96-2.09,6.68-4.12.18-.21.36-.43.53-.67l-5.27,14.82c-.97,2.74-3.25,4.53-6.59,5.19-2.75.55-4.22.54-5.78.52Z"/>
        <path class="cls-2" d="m13.68,168.48c-.41-.44-.82-.89-1.23-1.33l-1.05-1.14c-.82-.92-1.3-1.75-1.43-2.48-.08-.45-.02-.73.18-.85.16-.1.39-.09.68.04.46.21.86.61,1.18,1.2.31.56.62,1.28.91,2.13v.02c.07.08.12.13.17.17.05.04.13.09.26.14l.43.2-.54-3.3v-.04s-.63-.28-.63-.28l-.05.05s-.05.05-.07.06c-.05.03-.11.04-.16.01-.03-.01-.13-.09-.55-.48-.34-.31-.69-.55-1.06-.72-.76-.34-1.34-.32-1.72.05-.39.37-.51.95-.37,1.73.19,1.06.69,2.08,1.5,3.06.71.77,1.43,1.54,2.14,2.31.75.87,1.21,1.75,1.35,2.62.09.55.05.94-.11,1.16-.15.21-.42.22-.82.03-.5-.23-.95-.67-1.35-1.3-.19-.42-.38-.84-.58-1.25-.15-.32-.3-.65-.45-.99-.06-.09-.12-.16-.19-.21-.07-.05-.16-.1-.28-.16l-.49-.23.62,3.52v.04s.8.37.8.37l.03-.07s.04-.06.06-.1c.03-.04.06-.04.1-.02.03.02.17.1.63.52.34.31.72.57,1.12.75.46.21.85.32,1.2.32.41,0,.73-.15.97-.47.35-.46.45-1.13.31-2.01-.16-1-.67-2.04-1.53-3.09Zm-.88,5.11c-.39-.18-.75-.43-1.09-.73-.19-.17-.53-.48-.67-.54-.04-.02-.07-.02-.11-.02-.07,0-.12.03-.17.08v.02s-.04.04-.05.06l-.58-.27-.57-3.2.22.1c.11.06.19.11.25.15.05.04.1.1.15.16.15.33.3.65.45.98.19.42.38.84.58,1.26.41.66.89,1.12,1.41,1.37.47.22.8.19,1-.08.19-.26.23-.68.13-1.27-.15-.9-.62-1.81-1.39-2.7-.71-.77-1.43-1.54-2.14-2.31-.79-.95-1.28-1.96-1.46-2.99-.13-.73-.02-1.26.33-1.6.34-.33.86-.34,1.56-.02.36.16.69.39,1.02.69.44.41.55.48.59.5.1.04.2.04.3-.02.02-.01.05-.04.08-.06l.45.21.49,2.97-.17-.08c-.11-.05-.19-.09-.23-.13-.04-.03-.08-.07-.12-.13-.3-.86-.61-1.58-.92-2.15-.34-.62-.76-1.04-1.25-1.27-.34-.15-.61-.17-.82-.03-.25.15-.33.49-.24,1.01.13.75.62,1.61,1.46,2.55l1.05,1.14c.41.45.82.89,1.22,1.33.83,1.03,1.33,2.04,1.49,3.02.14.84.04,1.48-.28,1.9-.39.51-1.04.54-1.98.1Z"/>
        <path class="cls-2" d="m23.71,173.41s-.12-.09-.27-.14c-.12-.05-.21-.1-.26-.15-.06-.06-.12-.15-.19-.28-.01-.02-.02-.05-.04-.09l-.04-.09c-1.41-3.24-2.89-6.58-4.41-9.94l-.03-.06-1.21.41c-.14.04-.23.12-.29.24-.03.07-.03.13-.03.17,0,.04.02.08.04.13.02.04.04.08.05.13.08.15.16.3.23.45-.31,2.63-.62,5.39-.92,8.19-.02.19-.04.31-.06.4-.06.27-.13.44-.21.53-.13.13-.18.15-.19.15-.06.02-.12.05-.17.08-.11.08-.15.22-.12.43l.06.37,2.58-.05v-.09s-.03-.09-.03-.13c0-.04-.01-.09-.02-.13-.02-.11-.03-.18-.05-.23-.02-.06-.06-.11-.12-.16h-.02c-.08-.04-.16-.07-.23-.1l-.17-.07c-.1-.04-.17-.13-.19-.27l-.02-.12c-.02-.16-.03-.32-.02-.49,0-.05,0-.13.01-.22.03-.32.06-.63.1-.95l.04-.41,2.64-.05c.24.55.48,1.11.72,1.66.03.07.09.19.17.35.02.06.04.12.04.18.01.08,0,.14-.03.19-.03.05-.09.08-.18.11-.13.04-.22.08-.28.14-.09.1-.12.23-.09.41v.03c.02.08.03.16.04.23v.07s3.39-.07,3.39-.07l-.04-.28c-.03-.19-.1-.35-.21-.49Zm-2.98.19s.1-.07.2-.09c.13-.04.22-.09.27-.18.05-.08.06-.18.05-.29,0-.07-.03-.14-.05-.22-.08-.16-.14-.28-.17-.35-.25-.57-.49-1.14-.74-1.71l-.02-.05-2.87.06-.06.54c-.03.32-.07.63-.1.95-.01.1-.02.18-.01.24,0,.17,0,.34.02.51l.02.12c.03.2.13.33.29.39l.17.06c.07.03.15.06.23.09.03.03.05.05.06.08.01.04.03.1.04.2,0,.04.01.09.02.13,0,.02,0,.03,0,.05l-2.27.04-.04-.24c-.03-.21.04-.26.07-.28.03-.03.07-.05.11-.06.06-.02.14-.07.26-.19.11-.11.19-.3.26-.61.02-.09.04-.21.06-.41.3-2.81.61-5.57.93-8.21v-.02s0-.02,0-.02c-.08-.16-.17-.31-.24-.46-.01-.04-.03-.08-.05-.13-.03-.05-.03-.08-.03-.09,0-.01,0-.04.02-.09.03-.07.09-.12.19-.15l1.08-.37c1.51,3.33,2.98,6.65,4.38,9.87l.05.1s.03.06.04.09c.08.14.15.25.22.31.06.07.16.13.31.19.16.06.2.09.21.1.09.11.15.25.18.41v.11s-3.06.06-3.06.06c0-.06-.02-.11-.03-.17v-.03c-.03-.13,0-.23.05-.29Z"/>
        <path class="cls-2" d="m18.05,165.59l-.11-.27-.03.29c-.15,1.46-.31,2.92-.45,4.38v.08s2.49-.05,2.49-.05l-.04-.1c-.61-1.44-1.23-2.89-1.85-4.33Zm-.44,4.33c.13-1.33.27-2.67.41-4,.57,1.32,1.13,2.64,1.69,3.96l-2.11.04Z"/>
        <path class="cls-2" d="m30.13,165.59c-.12-1.04-.51-1.81-1.16-2.3-.51-.39-1.17-.58-1.96-.58-.08,0-.17,0-.26,0l-3.66.19.05.37c.02.14.07.25.16.31.08.06.17.1.27.12.07.01.12.04.15.07.04.04.06.07.07.11.02.04.03.1.04.18.35,2.61.7,5.22,1.04,7.82l.12.92s0,.06.01.09v.11c.02.06.03.13.02.19,0,.05-.02.09-.04.12,0,0-.04.05-.21.12-.08.03-.15.08-.2.14-.04.05-.07.11-.08.18,0,.04,0,.09,0,.16v.02c.01.1.03.19.04.29v.07s3.15-.17,3.15-.17l-.05-.41c-.02-.16-.1-.28-.21-.34-.04-.03-.11-.06-.22-.08-.08-.02-.13-.04-.17-.08-.06-.07-.11-.14-.13-.22-.03-.1-.05-.22-.07-.37l-.48-3.78.99-.05c.79-.04,1.45-.3,1.97-.76.65-.58.92-1.42.8-2.48Zm-3.92,3.14l.51,3.94c.02.15.05.28.08.39.03.1.08.2.17.28.06.06.14.09.25.12.12.02.15.05.17.06.08.04.12.12.14.23l.03.25-2.84.15c-.01-.07-.02-.14-.03-.22v-.02c0-.05-.01-.1-.01-.12,0-.04.02-.08.04-.11.03-.04.08-.07.14-.09.15-.06.24-.12.28-.17.04-.05.06-.12.07-.2,0-.07,0-.15,0-.22v-.11s-.02-.07-.03-.1l-.12-.92c-.35-2.61-.69-5.22-1.04-7.83-.01-.08-.02-.15-.04-.21-.02-.06-.06-.12-.11-.17-.06-.05-.13-.09-.23-.11-.08-.02-.15-.05-.21-.1-.05-.04-.09-.11-.1-.21l-.03-.2,3.5-.18c.08,0,.17,0,.25,0,.76,0,1.39.18,1.87.55.61.46.98,1.2,1.1,2.19.12,1.01-.13,1.8-.74,2.35-.49.44-1.12.68-1.87.72l-1.15.06Z"/>
        <path class="cls-2" d="m27.66,163.98c-.37-.39-.86-.58-1.47-.54l-.67.04.6,4.72.84-.04c.54-.03.93-.27,1.17-.72.23-.43.31-1.02.22-1.73-.09-.76-.33-1.34-.69-1.72Zm-1.41,4.05l-.56-4.41.51-.03s.08,0,.12,0c.51,0,.91.16,1.23.5.34.36.56.91.65,1.63.08.68.01,1.23-.21,1.64-.21.4-.56.61-1.05.63l-.7.04Z"/>
        <path class="cls-2" d="m34.64,173.25v-.02c-.01-.06-.02-.11-.03-.17-.01-.08-.06-.14-.13-.19-.05-.03-.11-.07-.2-.09-.06-.01-.11-.04-.14-.06-.02-.01-.04-.04-.06-.12-.02-.06-.02-.13-.03-.19l-.93-8.67c0-.1,0-.22,0-.36,0-.11.02-.19.06-.24.04-.05.08-.09.13-.11h.03s.1-.06.16-.09c.09-.04.15-.11.16-.2,0-.02.01-.06.01-.1v-.04c-.01-.11-.03-.22-.04-.33v-.07s-3.09.26-3.09.26h-.08s.04.37.04.37c0,.03.02.07.03.12.01.07.05.13.11.18.06.04.14.07.25.08.08,0,.14.03.17.06.04.04.06.08.07.13.02.08.03.17.04.27l.02.19c.29,2.55.57,5.11.86,7.66l.09.77c.01.1.02.22.02.34,0,.11-.02.19-.07.24-.04.05-.09.09-.15.1-.09.02-.15.05-.2.09-.04.03-.09.1-.09.2v.19c.01.11.03.21.04.32v.07s2.88-.25,2.88-.25h.08s0-.08,0-.08c0-.09-.02-.18-.03-.28Zm-2.81.21v-.19c0-.06.02-.08.03-.09.03-.03.07-.04.13-.06.09-.02.17-.07.23-.15.07-.08.1-.19.1-.34,0-.14,0-.26-.02-.36l-.09-.77c-.29-2.56-.57-5.11-.86-7.67l-.02-.19c-.01-.1-.03-.2-.05-.29-.02-.07-.06-.14-.12-.2-.06-.06-.15-.09-.26-.11-.08-.01-.14-.03-.18-.05-.03-.02-.05-.05-.05-.08,0-.05-.02-.1-.03-.12l-.02-.2,2.86-.24c0,.08.02.17.03.25v.02s0,.05,0,.07c0,.05-.03.08-.08.1-.06.03-.11.05-.16.08h-.02c-.07.04-.13.09-.18.16-.06.08-.09.19-.09.33,0,.14,0,.26,0,.38l.92,8.65v.03c0,.07.02.14.04.21.02.1.06.17.12.21.05.04.11.07.2.09.06.01.1.04.15.07.04.02.06.05.07.1.01.05.02.1.02.15v.02c.01.07.02.13.02.2l-2.65.23c0-.08-.02-.16-.03-.23Z"/>
        <path class="cls-2" d="m41.31,169.54c-.13,0-.23.03-.29.05-.07.03-.12.07-.16.13-.1.14-.16.37-.19.71-.05.69-.15,1.15-.3,1.37-.21.29-.59.49-1.14.58-.09.01-.21.02-.36.03l-1.05.07-.44-4.59.45-.03c.12,0,.25,0,.36,0,.11,0,.2.05.28.12.16.16.25.3.29.44.05.17.11.28.19.34.07.06.15.09.22.11.06.01.15.02.24.01l.35-.02v-.08c-.09-.98-.18-1.95-.27-2.93v-.07s-.43.03-.43.03h-.03s-.07.03-.12.04c-.07.02-.14.07-.19.14-.06.07-.09.19-.1.34-.01.13-.06.25-.14.36-.06.08-.15.15-.25.19-.11.05-.24.08-.41.09l-.54.04-.4-4.15,1.14-.08c.13,0,.27,0,.43,0,.14,0,.28.04.39.1.21.11.38.33.53.68l.13.31c.13.29.28.63.44,1.01l.02.03c.07.06.14.09.21.1.06,0,.16,0,.26,0l.35-.02v-.08c-.06-.57-.1-1.13-.15-1.7-.05-.57-.1-1.13-.15-1.7v-.15s-.12.09-.12.09c-.1.08-.16.13-.18.15-.04.03-.11.06-.2.1-.1.04-.18.06-.26.07-.08,0-.17.02-.25.02l-5.14.34h-.08s.04.4.04.4c.01.13.05.23.1.29.05.06.14.11.25.14.07.03.17.06.22.1.04.03.07.07.08.09,0,0,.02.09.04.28.2,1.97.4,3.94.6,5.91l.28,2.79c0,.1,0,.16.01.2,0,.17-.04.21-.05.22-.03.03-.08.06-.17.1-.09.04-.15.08-.2.12-.05.05-.08.11-.1.19,0,.02,0,.06,0,.19.01.1.02.21.03.32v.07s6.46-.44,6.46-.44h.08s-.3-3.59-.3-3.59l-.36.02Zm-5.76,3.6c-.01-.11-.01-.15,0-.15,0-.04.02-.07.05-.1.03-.03.09-.06.16-.09.08-.03.15-.07.21-.12.07-.05.1-.16.11-.34,0-.04,0-.11-.01-.21l-.28-2.8c-.2-1.97-.4-3.94-.6-5.91-.02-.19-.04-.29-.04-.3-.02-.06-.07-.12-.14-.17-.07-.05-.17-.09-.26-.13-.09-.03-.15-.06-.19-.1-.02-.03-.05-.08-.06-.21l-.03-.24,5.06-.33c.08,0,.17-.01.25-.02.09,0,.19-.03.3-.08.11-.04.18-.08.24-.11.01,0,.04-.03.07-.06.05.52.09,1.04.13,1.56.05.54.09,1.08.14,1.62h-.2c-.13.02-.21.02-.23.01-.03,0-.07-.02-.12-.06-.17-.37-.31-.7-.44-.99l-.13-.31c-.17-.37-.36-.62-.6-.75-.14-.07-.3-.11-.46-.12-.16,0-.31-.01-.45,0l-1.22.08h-.08s.42,4.38.42,4.38v.07s.7-.04.7-.04c.19-.01.33-.05.46-.1.13-.06.23-.14.31-.24.1-.14.16-.28.17-.44,0-.15.04-.22.07-.26.03-.05.07-.07.1-.08.05-.01.09-.02.12-.03l.28-.02c.08.93.17,1.85.25,2.78h-.19c-.08.02-.15.01-.2,0-.05-.01-.1-.04-.16-.08-.04-.03-.09-.1-.14-.26-.05-.16-.16-.33-.33-.51-.11-.1-.23-.16-.38-.17-.12,0-.26-.01-.38,0l-.6.04.46,4.82v.07s1.21-.08,1.21-.08c.15-.01.28-.02.38-.04.59-.1,1.01-.32,1.24-.65.17-.25.28-.72.33-1.45.03-.3.08-.52.16-.63.02-.03.05-.05.1-.07.03-.01.09-.03.24-.04h.21s.28,3.26.28,3.26l-6.22.43c0-.08-.02-.16-.03-.24Z"/>
        <path class="cls-2" d="m49.22,167.72c-.1-1.64-.2-3.28-.3-4.91-.01-.13,0-.26.02-.35.03-.09.07-.18.15-.26.03-.04.06-.07.07-.08.03-.01.06-.03.1-.06l.11-.07c.09-.08.13-.19.12-.31,0-.11-.01-.21-.02-.32v-.07s-2.31.11-2.31.11h-.08s0,.08,0,.08c0,.04,0,.08,0,.13,0,.04,0,.08,0,.13,0,.13.04.24.11.33.05.06.12.1.2.13.09.03.12.05.14.07.13.11.23.22.28.34.05.13.08.29.1.48l.37,5.75c-1.24-2.44-2.51-4.88-3.77-7.27l-.02-.04-2.7.13h-.08s.03.39.03.39c0,.1.03.17.05.22.03.06.07.11.14.15.06.04.14.06.25.08.09.01.15.04.19.07.04.03.08.09.1.17.03.08.05.2.06.33.21,2.71.43,5.42.64,8.12,0,.01,0,.02,0,.03h.08s.07-.04.07-.04c-.22-2.71-.43-5.42-.64-8.13-.01-.14-.03-.26-.07-.36-.04-.1-.09-.19-.15-.24-.06-.05-.15-.08-.26-.1-.09-.01-.15-.04-.2-.06-.04-.02-.07-.05-.08-.09-.02-.04-.03-.11-.04-.17l-.02-.23,2.53-.12c1.31,2.48,2.63,5.03,3.91,7.56l.17.33-.41-6.49c-.01-.21-.05-.39-.11-.53-.06-.15-.17-.28-.32-.4-.04-.04-.1-.07-.18-.1-.05-.02-.11-.05-.13-.08-.05-.07-.07-.15-.08-.25,0-.04,0-.08,0-.13,0-.02,0-.03,0-.05l2.07-.1c0,.08.01.16.01.24h0c0,.08-.02.14-.06.18l-.1.06s-.07.05-.09.05c-.05.02-.08.06-.12.12-.09.1-.15.21-.18.32-.03.11-.04.25-.03.4.1,1.64.2,3.28.3,4.91.1,1.61.2,3.22.3,4.83l-.98.05c-1.55-3.1-3.16-6.23-4.79-9.33l-.17-.33.63,8.19c.01.14.03.24.04.3.05.24.13.39.23.48.1.08.2.14.32.17.1.03.17.06.22.1.04.04.07.08.09.13.02.05.03.11.04.21,0,.08.01.16.02.24l-2.22.11-.02-.24c-.01-.15,0-.21,0-.24,0-.01.02-.04.07-.08.04-.04.12-.1.22-.17.08-.04.13-.11.17-.18.07-.1.1-.22.12-.35.01-.14.01-.23,0-.3,0-.03,0-.07-.01-.1,0-.02,0-.03,0-.04h-.08s-.07.04-.07.04c0,.05,0,.08.01.11,0,.07,0,.18,0,.27,0,.11-.04.2-.1.29-.03.05-.07.09-.12.12-.11.08-.19.14-.24.18-.06.05-.1.1-.11.15-.02.06-.03.15-.01.3l.03.39,2.44-.12h.08s0-.08,0-.08c0-.11-.01-.21-.02-.32-.01-.11-.02-.19-.05-.25-.03-.07-.07-.13-.13-.19-.07-.06-.16-.1-.28-.14-.1-.03-.19-.08-.27-.14-.07-.06-.13-.19-.18-.39-.01-.06-.03-.15-.04-.29l-.57-7.46c1.58,3,3.13,6.04,4.64,9.04l.02.04,1.23-.06v-.08c-.11-1.64-.21-3.28-.31-4.91Z"/>
        <path class="cls-2" d="m57.55,160.8v-.12s-.11.06-.11.06c-.21.11-.41.19-.6.25-.11.03-.22.04-.31.05-.12.01-.23.02-.33.02l-4.89.16c-.07,0-.17,0-.3.01-.12,0-.26-.01-.4-.05-.15-.04-.25-.06-.33-.08-.07-.01-.14-.04-.22-.08l-.12-.06.07,1.25c.04.73.08,1.46.13,2.19v.07s.41-.01.41-.01c.08,0,.17-.01.27-.04.1-.03.17-.08.21-.14.05-.07.1-.23.18-.91.05-.5.18-.85.38-1.07.08-.1.17-.15.27-.18.11-.03.25-.05.4-.05l.52-.02.02.33c.14,2.86.28,5.72.43,8.58,0,.16,0,.27,0,.36-.01.08-.05.15-.11.22-.03.04-.11.07-.22.1-.14.04-.25.1-.32.18-.07.08-.1.17-.1.25,0,.07,0,.12,0,.17l.02.35,3.49-.12-.02-.39c0-.09-.02-.17-.04-.24-.03-.08-.07-.14-.14-.18-.06-.04-.16-.07-.29-.1-.11-.03-.18-.06-.23-.11-.04-.05-.07-.13-.09-.22v-.09c-.02-.07-.03-.15-.04-.21l-.4-8.94h.4s.07-.01.12-.02c.15,0,.28,0,.36.01.09.01.18.05.28.11.2.12.37.39.49.81.24.84.32,1.02.36,1.09.1.17.25.26.45.26h.45s0-.09,0-.09c-.04-1.12-.08-2.24-.12-3.36Zm-.33,3.3c-.15,0-.25-.06-.32-.18-.05-.09-.17-.45-.34-1.05-.13-.46-.32-.76-.56-.9-.12-.07-.23-.11-.34-.13-.1-.01-.23-.02-.39-.01-.06,0-.1,0-.12,0l-.54.02.4,9.1c.01.07.02.14.03.21v.09c.03.12.07.22.13.29.06.08.17.13.31.17.15.03.21.06.24.08.04.02.06.05.08.1.02.06.03.13.03.21v.24s-3.17.11-3.17.11v-.21s-.01-.1-.01-.17c0-.04.02-.09.06-.15.04-.05.12-.1.23-.13.15-.04.24-.09.3-.15.08-.09.13-.19.14-.3.01-.1.01-.22,0-.39-.14-2.86-.29-5.72-.43-8.58l-.02-.48-.67.02c-.17,0-.32.03-.44.06-.13.03-.25.11-.35.23-.22.25-.35.63-.41,1.16-.06.49-.11.78-.16.85-.02.03-.06.06-.13.08-.08.02-.16.03-.23.04h-.26c-.04-.7-.08-1.4-.12-2.11l-.06-1.01s.09.03.14.04c.07.02.18.04.33.08.16.04.31.06.44.05.13,0,.23,0,.31-.01l4.88-.16c.1,0,.21-.01.33-.02.11,0,.22-.03.34-.05.17-.05.34-.11.52-.21.04,1.06.08,2.11.11,3.16h-.28s-.01,0-.02,0Z"/>
        <path class="cls-2" d="m61.69,171.99c0-.06,0-.13-.01-.19-.01-.08-.05-.15-.11-.2-.06-.04-.12-.08-.19-.1-.06-.02-.1-.04-.14-.07-.02-.01-.03-.05-.04-.11,0-.08-.01-.15-.02-.22l-.23-8.65c0-.11.01-.23.03-.36.01-.11.04-.19.08-.23.05-.05.09-.08.14-.1.05-.02.11-.04.18-.07h.02c.1-.05.16-.12.18-.2,0-.02.02-.05.02-.1v-.45s-3.22.07-3.22.07v.36s.03.07.03.12c0,.07.04.13.1.18.05.05.13.08.25.1.08.02.14.04.17.07.03.04.05.08.06.13.01.06.02.15.02.27l.28,8.63c0,.13,0,.24,0,.34-.01.11-.04.19-.08.24-.05.05-.1.08-.16.09-.09.01-.16.04-.21.08-.06.05-.1.11-.1.19,0,.03,0,.06,0,.1v.1s0,.39,0,.39l2.92-.06h.08s0-.09,0-.09c0-.09,0-.18,0-.27Zm-2.85-.06s0-.06,0-.09c0-.04.01-.07.04-.08.03-.02.08-.04.14-.05.09-.01.17-.06.25-.13.07-.07.11-.18.13-.33,0-.11.01-.22,0-.36l-.27-8.44v-.19c-.01-.13-.02-.23-.03-.29-.01-.08-.05-.15-.1-.21-.06-.06-.14-.1-.25-.12-.11-.02-.15-.05-.17-.06-.03-.03-.05-.05-.05-.08,0-.05-.01-.1-.02-.12v-.2s2.9-.06,2.9-.06v.28s0,.05-.01.07c0,.04-.04.07-.09.09h-.02c-.06.03-.12.06-.17.08-.07.03-.13.07-.2.14-.07.07-.11.18-.12.32-.02.13-.02.26-.03.37l.23,8.65c0,.08,0,.15.02.24.01.08.03.17.1.22.05.04.11.07.19.1.06.02.11.05.15.08.03.02.05.05.06.09,0,.06.01.12.01.18,0,.07,0,.13,0,.2l-2.7.06v-.23s0-.09,0-.09Z"/>
        <path class="cls-2" d="m70.37,171.33c-.11-.04-.19-.1-.23-.15-.04-.04-.09-.12-.15-.28l-.02-.06s-.03-.08-.04-.13c-1-3.36-2.03-6.72-3.05-9.97l-.02-.07-1.27.4c-.14.04-.25.11-.32.22-.03.07-.05.12-.05.16,0,.04,0,.08.03.14.01.05.03.08.04.13l.17.45c-.71,2.73-1.41,5.48-2.07,8.16-.04.16-.08.3-.11.39-.09.26-.19.45-.3.54-.14.12-.2.15-.22.15-.05.01-.11.04-.18.08-.12.08-.18.22-.18.41v.38s2.53-.02,2.53-.02h.08v-.08s0-.09,0-.13c0-.04,0-.09,0-.13,0-.1,0-.18-.02-.23-.02-.07-.05-.12-.1-.17h-.02c-.1-.05-.2-.09-.3-.14l-.08-.03c-.1-.04-.14-.13-.15-.27v-.03s0-.05,0-.09c0-.12.01-.28.04-.48,0-.05.02-.12.05-.22.11-.45.22-.91.33-1.36l2.66-.02c.17.55.33,1.1.49,1.65.02.08.07.2.12.36.01.05.02.11.02.18,0,.08-.02.14-.06.2-.03.05-.1.08-.2.11-.13.03-.23.08-.29.13-.09.09-.14.23-.14.4v.34s3.33-.03,3.33-.03h.08v-.27c0-.19-.05-.36-.14-.49-.03-.05-.09-.08-.26-.15Zm.25.76l-3.1.02v-.19c0-.13.03-.23.09-.29.03-.03.09-.07.22-.1.14-.03.24-.09.29-.17.06-.08.09-.18.08-.29,0-.08,0-.15-.03-.22-.06-.15-.1-.28-.12-.35-.17-.57-.34-1.14-.51-1.71l-.02-.05-2.84.02h-.06v.06c-.13.47-.25.95-.36,1.42-.03.12-.05.19-.05.25-.03.21-.05.37-.04.5,0,.04,0,.07,0,.09v.03c0,.25.14.36.24.4l.08.03c.1.04.19.08.29.12.02.02.04.05.04.08,0,.02.02.08.02.19,0,.04,0,.09,0,.13v.05l-2.3.02v-.23c0-.14.03-.24.1-.28.05-.03.09-.05.13-.06.04-.01.11-.04.28-.18.12-.11.24-.31.34-.6.04-.1.08-.24.12-.41.67-2.7,1.37-5.45,2.08-8.19v-.02s-.18-.48-.18-.48c0-.04-.02-.08-.04-.14,0-.03-.02-.06-.01-.08,0,0,0-.03.03-.09.04-.07.12-.12.23-.15l1.13-.36c1.02,3.23,2.04,6.55,3.03,9.9.02.05.03.1.04.13l.02.06c.05.14.11.25.18.32.06.07.16.14.29.19.14.06.18.09.19.1.08.11.12.25.12.4v.12Z"/>
        <path class="cls-2" d="m66.03,163.62l-.08-.27-.07.27c-.32,1.28-.66,2.67-1.07,4.36l-.02.1,2.52-.02-.03-.1c-.4-1.41-.83-2.88-1.26-4.35Zm1.08,4.29l-2.13.02c.37-1.53.69-2.81.98-3.99.39,1.35.78,2.68,1.15,3.98Z"/>
        <path class="cls-2" d="m85.53,168.89c-.12,0-.2,0-.26.03-.07.02-.13.06-.17.11-.12.13-.21.36-.28.69-.14.68-.31,1.13-.49,1.34-.25.27-.66.43-1.22.48-.08,0-.21,0-.37,0l-1.06-.02v-.07c.05-1.5.1-3,.15-4.51h.45c.13.02.22.03.28.03.18.04.3.09.36.17.12.15.2.29.23.41.08.32.13.39.16.42.08.07.14.11.21.12.06.01.14.02.24.03h.35s0-.07,0-.07c.04-.94.08-1.89.11-2.83v-.18s-.44,0-.44,0l-.13.02c-.07.01-.13.05-.21.12-.06.07-.11.18-.14.33-.02.12-.08.23-.18.33-.1.1-.22.17-.38.21-.09.02-.19.03-.33.03h-.55c.05-1.4.09-2.79.14-4.18l1.16.02c.15,0,.28.02.42.04.15.02.28.07.39.14.19.12.34.36.45.72.11.37.25.83.41,1.37v.02s.02.01.02.01c.07.07.14.11.2.12.05.01.13.02.26.02h.34s.16-3.61.16-3.61l-.13.09c-.13.09-.25.15-.37.19-.12.04-.22.06-.3.06h-.26l-5.27-.1h-.12s.06.11.06.11c0,.01,0,.02,0,.04,0,.01,0,.03,0,.04,0,.1-.02.17-.07.21l-.05.05.13.15c.07.08.13.16.2.24h.02c.07.06.19.13.34.22l.03.23c-1.63,2.63-3.27,5.34-4.87,8.06-.12.2-.2.32-.25.39-.19.27-.34.44-.48.53-.18.12-.26.15-.28.16-.07.01-.13.04-.19.07-.14.07-.24.19-.31.39l-.12.4,2.6.05.1-.31s.02-.06.04-.1v-.03s.02-.06.03-.12c0-.07-.02-.12-.06-.17-.02-.02-.07-.06-.26-.15-.14-.06-.15-.13-.15-.18,0,0,0-.04.03-.16.02-.09.09-.24.21-.47.04-.07.09-.17.16-.29.26-.46.52-.91.78-1.37l2.77.06c-.01.54-.03,1.09-.04,1.63v.1c0,.06,0,.14,0,.22,0,.09-.02.16-.04.24-.03.07-.07.13-.12.18-.18.07-.37.15-.56.22-.13.08-.22.21-.27.38-.03.09-.06.18-.08.26l-.03.1,7.18.14.16-3.51v-.08s-.36,0-.36,0h-.03Zm-6.74,3.3c.02-.06.04-.11.05-.17.04-.14.11-.24.19-.29.19-.07.38-.15.57-.22l.03-.02c.08-.08.13-.16.17-.25.04-.09.05-.18.06-.29,0-.08,0-.16,0-.22v-.1c.02-.57.04-1.14.05-1.71v-.08s-2.97-.06-2.97-.06h-.04s-.02.04-.02.04c-.27.47-.54.94-.8,1.41-.07.12-.12.22-.16.29-.13.24-.2.41-.22.51-.03.14-.04.18-.04.2,0,.13.08.24.24.31.17.08.21.11.21.11,0,0,.02.02.02.06,0,.03,0,.06,0,.08v.03s-.03.06-.04.09l-.07.21-2.29-.05.06-.21c.05-.15.12-.25.23-.3.05-.03.1-.05.15-.06.04,0,.13-.04.34-.18.16-.1.32-.28.52-.57.07-.1.16-.24.25-.4,1.61-2.72,3.25-5.44,4.89-8.08v-.02s-.03-.36-.03-.36l-.03-.02c-.16-.1-.29-.17-.37-.22-.07-.07-.13-.15-.19-.22l-.04-.05c.04-.07.07-.15.07-.26,0-.01,0-.02,0-.04l5.19.1s.08,0,.13,0c.14,0,.29,0,.48-.07.1-.03.19-.07.29-.13l-.14,3.17h-.2c-.12,0-.2-.01-.24-.02-.03,0-.07-.03-.11-.07-.16-.53-.29-.98-.4-1.35-.11-.39-.28-.66-.51-.8-.13-.08-.28-.14-.45-.16-.14-.02-.29-.03-.44-.04l-1.31-.03v.07c-.05,1.44-.1,2.88-.15,4.32v.08s.7.01.7.01c.15,0,.26-.01.37-.04.19-.05.34-.13.46-.25.12-.12.19-.26.22-.41.03-.16.07-.22.1-.25.05-.05.09-.07.12-.08l.12-.02h.28s0,.04,0,.04c-.04.92-.07,1.84-.11,2.76h-.2c-.09,0-.15-.01-.2-.03-.04,0-.09-.04-.14-.09,0,0-.04-.06-.12-.35-.04-.14-.13-.3-.26-.46-.09-.11-.23-.18-.45-.22-.06,0-.16-.02-.29-.03h-.61s0,.06,0,.06c-.05,1.53-.1,3.06-.15,4.58v.22s1.21.02,1.21.02c.16,0,.3,0,.38,0,.6-.05,1.05-.23,1.32-.53.2-.23.37-.69.52-1.4.06-.3.15-.51.24-.62.03-.03.06-.05.11-.07.05-.01.13-.02.24-.02h.21s-.15,3.29-.15,3.29l-6.83-.14Z"/>
        <path class="cls-2" d="m77.37,167.99l-.07.11,2.66.05v-.08c.04-1.46.08-2.91.12-4.37v-.29s-.14.25-.14.25c-.86,1.43-1.73,2.88-2.58,4.32Zm.2-.03c.78-1.32,1.57-2.65,2.36-3.96-.04,1.33-.08,2.67-.11,4l-2.25-.04Z"/>
        <path class="cls-2" d="m90.4,161.27l-3.58-.15-.02.38c0,.07,0,.13,0,.19.01.08.05.15.12.2.06.04.12.07.22.09.05.01.11.04.17.1.06.06.09.11.09.15,0,.06,0,.18,0,.3-.1,1.9-.19,3.81-.28,5.71l-.14,2.86c0,.2-.02.3-.03.34-.01.06-.04.1-.1.15-.06.05-.12.08-.19.09-.08.01-.14.03-.17.04-.1.04-.16.1-.18.17-.02.06-.04.14-.04.25v.02c0,.09-.01.18-.02.27v.08s3.41.14,3.41.14c.07,0,.14,0,.21,0,1.24,0,2.25-.45,3-1.34.8-.94,1.27-2.33,1.39-4.14.12-1.68-.13-3.06-.73-4.1-.67-1.16-1.73-1.77-3.14-1.83Zm3.72,5.91c-.13,1.78-.58,3.14-1.36,4.05-.78.91-1.79,1.33-3.09,1.28l-3.25-.14c0-.06.01-.13.01-.19v-.02c0-.1.02-.17.04-.22.01-.03.06-.06.09-.08.01,0,.06-.01.14-.03.1-.02.19-.06.26-.12.08-.07.13-.15.15-.24.01-.08.03-.21.03-.36l.14-2.86c.09-1.9.19-3.81.28-5.71,0-.18,0-.27,0-.32,0-.08-.05-.15-.14-.24-.08-.08-.17-.13-.25-.15-.07-.01-.12-.03-.16-.06-.04-.03-.06-.05-.06-.09,0-.06,0-.11,0-.17v-.23s3.44.14,3.44.14c1.36.05,2.37.65,3.02,1.75.59,1.01.83,2.36.71,4.01Z"/>
        <path class="cls-2" d="m92.05,163.18c-.34-.75-.87-1.14-1.57-1.17l-1.32-.05-.03.55c-.17,3.1-.34,6.2-.5,9.3v.08s1.21.05,1.21.05c.03,0,.07,0,.1,0,.81,0,1.43-.44,1.84-1.31.35-.75.58-1.94.68-3.55.05-.68.06-1.23.04-1.7-.04-.95-.18-1.67-.43-2.2Zm.24,3.88c-.1,1.59-.33,2.77-.66,3.5-.38.82-.94,1.22-1.7,1.22-.03,0-.06,0-.1,0l-1.06-.04c.16-3.07.33-6.15.5-9.22l.02-.4,1.18.05c.64.03,1.13.39,1.44,1.08.24.51.37,1.21.41,2.14.02.45,0,1.02-.04,1.68Z"/>
        <path class="cls-2" d="m98.38,162.38c.1-.03.17-.09.19-.17.01-.02.02-.04.02-.06,0-.01,0-.02.01-.03l.04-.46-3.12-.17h-.07s-.03.36-.03.36c0,.03,0,.07,0,.12,0,.07.03.14.08.19.05.05.12.09.24.12.08.02.13.05.16.09.03.04.05.08.05.13,0,.05,0,.14,0,.27,0,.03,0,.06,0,.11l-.63,8.52c0,.1-.02.21-.04.34-.02.11-.06.19-.11.23-.06.05-.11.07-.17.08-.08,0-.15.03-.21.06-.06.04-.1.1-.12.19,0,.03,0,.06-.01.09,0,.03-.01.06-.02.1l-.03.39,2.98.17v-.08s.01-.09.01-.14c0-.05,0-.09.01-.13,0-.07,0-.13,0-.19,0-.08-.03-.15-.09-.21-.05-.04-.11-.08-.18-.12-.06-.03-.1-.05-.13-.08-.02-.02-.03-.06-.03-.12,0-.08,0-.15,0-.22.11-1.44.23-2.88.34-4.32.11-1.44.23-2.88.34-4.32.01-.1.03-.22.06-.36.02-.11.06-.18.11-.23.05-.05.1-.08.15-.09.06-.02.13-.04.21-.06Zm-.67.72c-.11,1.44-.23,2.88-.34,4.32-.11,1.44-.23,2.88-.34,4.33,0,.07-.01.15,0,.24,0,.1.03.18.08.22.04.04.1.08.18.11.06.03.11.06.14.09.03.03.04.06.04.1,0,.06,0,.12,0,.18,0,.04,0,.09-.01.14,0,.02,0,.04,0,.06l-2.68-.15.02-.23s0-.06.01-.09c0-.03.01-.06.02-.09.01-.05.03-.07.05-.08.04-.02.09-.04.15-.04.09,0,.18-.04.26-.11.08-.07.13-.17.16-.32.03-.14.04-.26.05-.36l.62-8.44v-.09s.01-.08.01-.11c.01-.14.01-.23,0-.29,0-.08-.03-.15-.08-.22-.05-.06-.13-.11-.24-.14-.1-.03-.15-.06-.17-.08-.02-.03-.04-.05-.04-.08,0-.06,0-.1,0-.12v-.2s2.9.15,2.9.15l-.02.27s0,.02-.01.03c0,0,0,.02-.01.04-.01.03-.03.07-.1.09-.07.02-.14.04-.2.06-.07.02-.14.06-.21.12-.07.07-.12.17-.15.31-.03.14-.05.26-.07.37Z"/>
        <path class="cls-2" d="m105.29,165.31l.36-3.53-.11.04c-.18.06-.36.11-.54.15-.12.02-.28.04-.49.04-.17,0-.35,0-.51,0-.02,0-.04,0-.08,0l-4.61-.3h-.07s-.03.39-.03.39c0,.07,0,.13.02.2.03.07.07.12.12.15.04.03.1.06.21.1.09.04.16.08.21.14.05.05.06.12.05.24,0,.01,0,.03,0,.05,0,.03,0,.06,0,.1l-.73,8.61s0,.09-.01.12c0,.03,0,.06,0,.07-.03.12-.07.21-.14.25-.08.05-.15.08-.22.1-.1.02-.18.06-.24.11-.07.06-.11.16-.13.3-.01.13-.02.26-.03.39v.08s3.24.22,3.24.22v-.07s.02-.1.02-.15c0-.05,0-.1.01-.15,0-.05,0-.11.01-.17v-.05c0-.1-.03-.18-.1-.23-.04-.03-.12-.06-.24-.09-.11-.03-.19-.07-.25-.14-.06-.06-.09-.13-.09-.21s0-.15,0-.2l.37-4.07.66.04c.11.01.23.03.38.06.13.03.22.07.3.14.12.11.2.26.22.45.04.31.07.37.09.39.06.09.14.14.24.15.08,0,.15.01.21.02l.35.02v-.07c.1-.9.18-1.8.27-2.7l.03-.32-.38-.02h-.03s-.07,0-.11.01c-.08,0-.15.03-.19.07-.09.07-.17.19-.23.38-.06.16-.13.28-.21.36-.08.08-.18.13-.28.16-.11.03-.25.04-.43.03l-.8-.05c.06-.69.12-1.38.19-2.07.06-.69.12-1.38.19-2.08l1.23.08c.15.01.3.04.46.09.15.05.26.1.33.15.24.17.4.53.48,1.07.13.85.19.94.22.97.06.08.12.14.2.15.05,0,.11.02.16.02l.48.03Zm-3.71-2.65c-.06.72-.13,1.43-.19,2.15-.06.72-.13,1.43-.19,2.15v.08s.95.06.95.06c.2.01.36,0,.48-.04.12-.04.24-.1.34-.2.1-.09.18-.23.25-.41.07-.19.14-.28.19-.31.01-.01.05-.03.1-.03.05,0,.09,0,.12,0h.02s.22.01.22.01l-.02.16c-.08.88-.17,1.75-.26,2.63h-.2c-.06-.02-.13-.02-.21-.03-.06,0-.1-.03-.14-.09,0,0-.03-.06-.06-.32-.03-.23-.12-.41-.27-.55-.1-.09-.22-.15-.38-.18-.16-.03-.29-.05-.4-.06l-.81-.05-.38,4.18v.04c0,.05,0,.12-.01.21,0,.12.04.24.13.33.08.08.19.14.32.18.15.04.19.07.2.07,0,0,.03.02.03.09v.05c0,.05,0,.11-.01.16,0,.05,0,.1-.01.15,0,.02,0,.05,0,.07l-2.94-.2c0-.1.02-.21.03-.31.01-.09.04-.16.07-.19.05-.04.1-.06.17-.08.09-.01.18-.05.28-.12.1-.07.16-.18.2-.36,0-.02,0-.04,0-.07,0-.04,0-.08.01-.13l.73-8.61s0-.07,0-.1c0-.02,0-.04,0-.05.01-.16-.02-.28-.1-.36-.07-.07-.16-.13-.26-.17-.1-.04-.16-.07-.18-.09-.03-.02-.05-.04-.06-.07-.01-.04-.01-.09-.01-.14l.02-.24,4.5.29h.04s.05,0,.07,0c.17.01.35.01.53,0,.22,0,.38-.02.51-.04.16-.03.31-.07.45-.12l-.32,3.15-.33-.02s-.1-.01-.14-.02c-.04,0-.08-.05-.1-.09-.01-.02-.07-.15-.19-.91-.09-.58-.27-.97-.54-1.17-.09-.07-.21-.12-.38-.18-.17-.05-.33-.09-.5-.1l-1.38-.09v.07Z"/>
        <path class="cls-2" d="m109.43,162.85l.05-.45-3.17-.24-.04.36v.03s0,.06,0,.1c0,.07.02.14.07.19.04.05.12.09.23.13.08.03.13.05.15.09.03.04.04.08.04.13,0,.06,0,.14-.01.27,0,.03,0,.06-.01.11l-.89,8.52c-.01.1-.03.22-.06.34-.02.11-.06.18-.12.23-.06.05-.11.07-.17.07-.09,0-.16.02-.22.06-.06.04-.1.1-.12.18,0,.03-.01.06-.02.09,0,.03-.01.06-.02.1l-.04.39,2.96.23.04-.35c0-.07.01-.13.01-.19,0-.08-.03-.16-.09-.21-.05-.05-.11-.09-.18-.12-.05-.02-.09-.05-.13-.08-.02-.02-.03-.06-.03-.12,0-.08,0-.15.01-.22.29-2.62.58-5.25.87-7.87l.09-.78c.02-.11.04-.23.07-.35.03-.11.06-.18.11-.23.05-.04.1-.07.15-.09l.2-.06c.1-.03.17-.09.21-.18v-.03s.02-.03.03-.05Zm-.15-.04s-.01.03-.01.04c0,.01-.01.03-.01.03-.02.05-.05.08-.11.09l-.2.06c-.08.02-.15.06-.21.12-.08.07-.13.17-.16.31-.03.13-.06.25-.08.37l-.09.78c-.29,2.62-.58,5.25-.87,7.87,0,.08-.01.16-.01.24,0,.1.02.18.07.23.05.05.1.08.17.12.05.02.1.05.14.09.03.03.04.06.04.1,0,.06,0,.12-.01.18l-.02.2-2.66-.21.02-.23s.01-.06.02-.09c0-.03.01-.06.02-.09.01-.04.03-.07.05-.08.04-.02.09-.03.15-.04.09,0,.18-.04.26-.11.08-.07.14-.17.17-.32.03-.13.05-.25.06-.36l.89-8.44v-.09s.01-.08.02-.11c.01-.14.02-.23.01-.29,0-.08-.03-.16-.07-.22-.04-.06-.12-.11-.23-.15-.11-.03-.15-.07-.16-.08-.03-.03-.03-.06-.03-.08,0-.04,0-.08,0-.11h0s.02-.21.02-.21l2.86.22-.03.27Z"/>
        <path class="cls-2" d="m116.17,171.57l-.74-.54-.03.1c-.03.08-.05.15-.08.23-.04.12-.08.25-.12.37-.19.45-.41.8-.69,1.07-.37.36-.79.53-1.27.49-.6-.04-1.04-.35-1.34-.94-.25-.49-.4-1.19-.43-2.07-.03-.67.01-1.47.13-2.38.18-1.52.45-2.66.79-3.37.4-.84.93-1.25,1.61-1.25.04,0,.08,0,.12,0,.52.04.87.29,1.07.76.12.29.2.77.24,1.42.04.78.13.97.21,1.05.11.11.16.16.2.19.03.03.1.06.3.08l.34.02.5-3.74v-.08s-.74-.05-.74-.05l-.02.05c-.03.08-.05.1-.07.12-.06.07-.12.09-.21.1l-.83-.5c-.32-.17-.68-.26-1.09-.29-.08,0-.15,0-.22,0-1,0-1.91.48-2.7,1.42-.87,1.05-1.41,2.44-1.61,4.13-.2,1.72-.01,3.2.56,4.39.6,1.27,1.53,1.95,2.77,2.04.09,0,.19.01.28.01.73,0,1.36-.22,1.89-.65.41-.33.74-.8.98-1.38.03-.11.07-.22.1-.33.04-.13.08-.27.12-.41v-.05Zm-.28.41c-.03.11-.07.22-.1.32-.23.56-.54,1-.93,1.31-.55.46-1.24.66-2.05.61-1.19-.09-2.05-.73-2.64-1.96-.55-1.16-.74-2.61-.54-4.31.19-1.67.72-3.03,1.57-4.05.76-.91,1.63-1.37,2.59-1.37.07,0,.14,0,.21,0,.39.03.73.12,1.02.27l.84.51h.03s.03.01.04.01c.13,0,.24-.05.31-.14.03-.03.05-.06.08-.11l.48.03-.47,3.52h-.2c-.17-.03-.21-.05-.22-.06-.04-.03-.11-.1-.19-.18-.04-.04-.12-.2-.16-.95-.04-.67-.12-1.15-.25-1.47-.22-.53-.63-.82-1.2-.86-.04,0-.09,0-.13,0-.74,0-1.33.45-1.75,1.33-.35.74-.62,1.86-.8,3.42-.11.92-.15,1.72-.13,2.41.03.91.18,1.62.45,2.13.32.63.81.98,1.47,1.02.51.03.99-.15,1.39-.53.29-.28.53-.65.72-1.12.04-.12.09-.25.13-.38.01-.04.03-.09.04-.13l.49.35c-.04.12-.07.24-.11.36Z"/>
        <path class="cls-2" d="m124.14,173.34c-.1-.04-.17-.09-.2-.14-.04-.05-.07-.14-.1-.27l-.03-.18c-.45-3.26-.94-6.59-1.46-9.92v-.09s-1.36.42-1.36.42c-.15.04-.26.11-.34.22-.04.07-.07.12-.07.16,0,.04,0,.09,0,.14,0,.04.01.08.01.13.04.15.07.29.1.44-1.16,2.79-2.29,5.55-3.36,8.2-.06.15-.12.3-.17.4-.13.27-.26.45-.38.55-.17.13-.23.15-.25.16-.06.02-.12.05-.18.08-.13.08-.21.21-.23.41-.01.1-.03.2-.04.31v.09s2.58-.06,2.58-.06v-.06c.02-.08.03-.16.04-.23v-.03c.02-.11.02-.18.02-.23,0-.07-.03-.12-.08-.17h-.02c-.07-.04-.14-.07-.2-.1-.05-.02-.1-.04-.15-.07-.03-.01-.12-.05-.09-.25v-.02s.01-.06.02-.11c.02-.13.06-.29.12-.48.01-.04.03-.11.06-.18l.02-.05c.15-.37.3-.74.45-1.11l.11-.27,2.66-.06c.07.55.15,1.09.22,1.64,0,.07.03.19.07.35,0,.04,0,.1,0,.17-.01.08-.04.15-.09.21-.04.05-.12.09-.23.12-.13.03-.23.08-.3.13-.1.09-.17.22-.2.4v.09c-.02.06-.03.11-.04.17l-.02.09,3.4-.08v-.06s.02-.06.02-.1c0-.03.01-.07.01-.1.03-.19,0-.36-.07-.5-.03-.05-.1-.09-.23-.15Zm-2.95.75v-.09c.03-.14.08-.24.16-.3.05-.04.14-.08.25-.1.14-.04.24-.09.31-.17.07-.07.11-.17.13-.28.01-.09.01-.15,0-.22-.04-.18-.06-.29-.06-.35-.08-.57-.16-1.14-.23-1.71v-.07s-2.85.07-2.85.07h-.05s-.15.36-.15.36c-.15.37-.3.74-.45,1.11l-.02.05c-.03.08-.06.14-.07.19-.06.19-.11.36-.12.51,0,.04-.01.07-.01.1v.02c-.04.27.09.37.18.41.05.02.1.04.15.07.06.03.13.06.19.08.01.02.02.04.03.06,0,.05,0,.13-.01.19v.03c-.01.06-.02.11-.03.17l-2.29.05c.01-.07.02-.14.03-.22.02-.15.07-.25.16-.3.05-.03.1-.05.15-.07.04-.01.12-.04.3-.19.14-.11.28-.31.43-.6.04-.08.1-.2.18-.41,1.07-2.66,2.21-5.42,3.37-8.22v-.02s0-.02,0-.02c-.04-.16-.07-.31-.11-.45,0-.04,0-.08-.01-.14,0-.04,0-.07,0-.09,0-.01,0-.04.04-.1.06-.08.14-.13.26-.16l1.18-.37c.51,3.3,1,6.61,1.44,9.84l.03.19c.04.15.08.25.13.32.05.07.14.14.27.19.14.06.16.09.16.09.06.11.08.24.05.4,0,.03,0,.06-.01.1,0,.01,0,.02,0,.03l-3.09.07s0-.05.01-.08Z"/>
        <path class="cls-2" d="m121.05,165.7l-.04-.29-.11.27c-.59,1.46-1.18,2.92-1.76,4.38l-.04.11,2.52-.06v-.08c-.21-1.58-.39-2.99-.57-4.33Zm-1.72,4.31c.53-1.34,1.07-2.67,1.61-4.01.16,1.23.33,2.52.51,3.96l-2.12.05Z"/>
        <path class="cls-2" d="m130.44,162.57c.09-.01.17,0,.25.03.16.06.26.28.29.65.06.78.1.95.13,1.01.04.1.15.25.45.16l.4-.12.64-3.59-.15.11c-.22.16-.45.3-.66.42-.11.05-.22.1-.33.14-.12.04-.23.08-.33.11-.02,0-.05.01-.08.02l-.1.03c-1.58.48-3.14.95-4.71,1.43l-.31.09c-.13.04-.26.06-.39.06h-.31s-.01,0-.01,0c-.06,0-.12,0-.19-.02h-.08s-.54,3.38-.54,3.38l-.02.12.46-.14c.09-.03.18-.07.26-.11.09-.05.17-.11.22-.18.08-.1.19-.4.37-.96.16-.52.36-.92.62-1.21.1-.12.21-.21.33-.27.11-.06.25-.11.42-.17l.47-.14c-.49,2.96-.97,5.91-1.46,8.87-.03.15-.06.28-.09.37-.03.08-.08.17-.16.26-.05.05-.14.12-.26.18-.14.07-.25.16-.33.25-.08.09-.12.18-.14.25-.01.07-.03.12-.03.18l-.06.4.24-.07c1.07-.34,2.15-.67,3.22-1.01h.04s.06-.38.06-.38c.02-.09.02-.17.01-.24-.01-.12-.08-.16-.12-.18-.06-.02-.14-.03-.28-.02-.01,0-.03,0-.04,0-.1,0-.12-.03-.13-.04-.03-.04-.04-.1-.03-.18,0-.06.01-.12.01-.18l1.53-9.08.43-.13s.07-.02.12-.04c.14-.04.27-.07.36-.09Zm-2.58,9.21v.11c-.02.06-.02.12-.03.18-.01.12.01.21.06.29.08.1.22.1.3.1.14,0,.19,0,.22.01,0,0,.02,0,.03.05,0,.03,0,.1-.01.19l-.05.27c-1.06.33-2.12.66-3.18.99h0l.03-.15s.02-.1.03-.17c.01-.05.05-.12.11-.19.06-.08.16-.15.28-.21.14-.08.25-.15.31-.22.1-.11.16-.21.19-.32.03-.1.06-.23.09-.39.49-3,.99-5.99,1.48-8.99l.02-.12-.71.22c-.18.06-.33.11-.44.18-.13.07-.26.17-.37.31-.26.31-.48.72-.65,1.27-.16.52-.28.83-.34.92-.03.05-.09.1-.16.13-.08.04-.16.07-.24.1l-.22.07.49-3.12c.06,0,.12,0,.16,0h.31c.14,0,.29-.03.43-.08l.31-.09c1.56-.48,3.13-.95,4.71-1.43l.1-.03s.06-.02.08-.02c.1-.03.21-.07.33-.11.12-.04.23-.09.35-.14.17-.09.35-.2.53-.32l-.56,3.13-.31.09c-.22.07-.25-.03-.27-.07-.02-.05-.06-.26-.12-.96-.04-.44-.16-.7-.39-.78-.1-.04-.21-.05-.33-.04-.1.02-.24.05-.38.09-.06.01-.1.03-.13.04l-.51.15-1.54,9.07Z"/>
        <path class="cls-2" d="m25.84,127.34l.2,3.29c0,.23.02,3.03,1.34,6.47.07.18.14.36.22.54,1.48,3.57,4.38,7.71,10.05,10.44,1.36.66,2.73,1.24,4.09,1.76.18.07.35.13.53.19.24.09.48.17.72.26,7.04,2.5,14.06,3.39,20.83,3.67.24,0,.48.02.72.03.18,0,.36.01.53.02.64.02,1.28.03,1.91.04.18,0,.36,0,.53,0,.71,0,1.41.01,2.11.02.09,0,.18,0,.27,0s.18,0,.27,0c.71,0,1.42,0,2.14-.02.18,0,.36,0,.53,0,.63-.01,1.26-.03,1.89-.04.18,0,.35-.01.53-.02.24,0,.48-.02.72-.03,6.77-.27,13.78-1.17,20.82-3.67.24-.09.48-.17.72-.26.18-.07.35-.12.53-.19,1.37-.52,2.73-1.11,4.1-1.76,5.67-2.73,8.57-6.88,10.05-10.44.08-.18.15-.36.22-.54,1.32-3.43,1.33-6.2,1.33-6.39l.21-3.37.03-.53.05-.74,5.15-84.11H20.61l5.15,84.11.05.74.03.53Zm.66-9.79h0s-.11-1.8-.11-1.8l-.14-2.26-.11-1.8-.72-11.82h0s-.2-3.33-.2-3.33l-1.97-32.19-.06-.93-.4-6.52-.03-.57-.46-7.52h0s-.07-1.1-.07-1.1l-.28-4.5h95.91l-3.26,53.33-.12,1.91-.09,1.42-.69,11.3h0s-.03.55-.03.55l-.02.31-.37,6.11-.05.89-.71,11.6s0,.02,0,.04c0,0,0,0,0,.02,0,.03,0,.07,0,.12,0,.01,0,.02,0,.03,0,.1-.01.23-.02.39-.01.16-.03.35-.05.56,0,0,0,.01,0,.02-.02.14-.03.29-.06.45,0,.01,0,.02,0,.03-.03.19-.06.39-.1.6-.01.07-.03.15-.04.22-.02.1-.04.2-.06.31,0,.03-.02.07-.02.11-.04.18-.08.37-.13.57-.02.08-.03.14-.05.22,0,0,0,0,0,0-.39,1.57-1.08,3.49-2.27,5.43,0,0,0,0,0,0-.06.09-.12.18-.17.27-.08.13-.18.26-.27.39h0s0,0,.01.01c-.13.2-.29.4-.43.6-.06.08-.11.15-.17.23-.26.34-.54.68-.83,1.02-.03.03-.05.06-.07.09-.62.7-1.32,1.38-2.12,2.03,0,0,0,0,0,0h0c-.07.06-.13.12-.2.17-.13.1-.26.21-.39.31,0,0,0,0,0,0-1,.75-2.12,1.46-3.41,2.08-1.11.54-2.23,1.01-3.34,1.46,0,0,0,0,0,.01-.13.05-.26.1-.39.15-.25.1-.51.2-.76.29-.13.05-.25.1-.38.14-.11.04-.23.07-.34.11-.75.27-1.5.52-2.24.75-.09.03-.18.06-.27.09-.06.02-.12.03-.18.05-.27.08-.55.16-.82.24-.21.06-.41.12-.62.18,0,0,0,0,0,0-7.75,2.1-15.34,2.42-22.36,2.42s-14.61-.32-22.36-2.42c0,0,0,0,0,0-.2-.06-.41-.12-.61-.18-.27-.08-.55-.15-.82-.24-.06-.02-.12-.03-.18-.05-.09-.03-.18-.06-.27-.09-.75-.23-1.5-.48-2.25-.75-.11-.04-.23-.07-.34-.11-.13-.05-.25-.1-.38-.14-.25-.09-.51-.19-.76-.29-.13-.05-.26-.1-.39-.15,0,0,0,0,0-.01-1.11-.44-2.23-.92-3.34-1.46-6.69-3.22-9.27-8.6-10.26-12.29,0,0,0,0,0,0-.12-.46-.23-.9-.31-1.3h0s0,0,0,0c-.04-.19-.07-.36-.1-.53,0-.05-.02-.11-.03-.16-.02-.12-.04-.23-.05-.34,0-.05-.01-.1-.02-.15-.01-.11-.03-.21-.04-.31,0-.04,0-.08-.01-.12-.03-.26-.04-.48-.05-.65,0-.03,0-.05,0-.08,0-.06,0-.11,0-.15,0-.02,0-.04,0-.06,0-.04,0-.07,0-.09,0-.02,0-.03,0-.04,0-.02,0-.04,0-.04l-.11-1.87-.08-1.25h0l-.61-9.97Z"/>
        <path class="cls-2" d="m31.9,70.34c4.16,4.16,5.69,6.69,7.31,9.36,1.49,2.46,3.02,4.99,6.44,8.64,1.01-1.4,2.41-2.57,4.22-3.29-3.27-3.44-4.65-5.72-6.1-8.12-1.71-2.82-3.48-5.74-8.1-10.36-4.62-4.62-7.53-6.39-10.36-8.1-.84-.51-1.66-1.01-2.52-1.58l.4,6.52c2.45,1.49,4.89,3.09,8.71,6.92Z"/>
        <path class="cls-2" d="m107.73,138.71c-.1-.1-.2-.22-.3-.32-.19-.2-.37-.39-.57-.6-.3-.32-.62-.64-.95-.97-4.62-4.62-7.54-6.39-10.36-8.1-2.67-1.62-5.19-3.15-9.36-7.31-3.93-3.93-5.52-6.4-7.04-8.92h-5.1c.05.3.12.6.22.88.73,2.14,2.74,3.58,5.01,3.58h1.26v1.26c0,1.36-.46,2.61-1.24,3.62.88,1.02,1.9,2.12,3.13,3.35,4.62,4.62,7.54,6.39,10.36,8.1,2.67,1.62,5.19,3.15,9.36,7.31.36.36.7.71,1.02,1.05.15.16.28.3.42.45.16.18.34.36.49.52.27.3.53.59.78.87.01.01.03.03.04.04.24.28.47.55.69.82.01.02.03.03.04.05h0s0,0,0,0c.8-.65,1.49-1.33,2.12-2.03.03-.03.05-.06.07-.09.3-.34.57-.68.83-1.02.06-.08.11-.15.17-.23.15-.2.3-.4.43-.6,0,0,0,0-.01-.01-.46-.54-.96-1.11-1.52-1.71Z"/>
        <path class="cls-2" d="m31.15,54.42c2.67,1.62,5.19,3.15,9.35,7.31,4.16,4.16,5.69,6.69,7.31,9.35,1.71,2.82,3.48,5.74,8.1,10.36,2.54,2.54,4.56,4.21,6.34,5.49-.54-2.48-.9-4.69-.9-6.97,0-.23,0-.45.02-.67-.53-.49-1.09-1.03-1.68-1.62-4.16-4.16-5.69-6.69-7.31-9.35-1.71-2.82-3.48-5.74-8.1-10.36-4.62-4.62-7.54-6.39-10.36-8.1-2.53-1.53-4.92-2.98-8.69-6.66h-3.28l.28,4.5c3.81,3.61,6.41,5.19,8.93,6.71Z"/>
        <path class="cls-2" d="m112.76,126.5c-3.63-3.38-6.15-4.91-8.6-6.39-2.67-1.62-5.19-3.15-9.36-7.31-4.16-4.16-5.69-6.68-7.31-9.35-.82-1.35-1.66-2.73-2.82-4.31-1.01.99-2.06,2.71-2.87,5.24.39.62.76,1.22,1.13,1.83,1.71,2.82,3.48,5.74,8.1,10.36,4.62,4.62,7.54,6.39,10.36,8.1,2.67,1.62,5.19,3.15,9.36,7.31.51.51.98.99,1.41,1.45.02-.11.04-.21.06-.31.01-.07.03-.15.04-.22.04-.21.07-.41.1-.6,0-.01,0-.02,0-.03.02-.16.04-.31.06-.45,0,0,0-.01,0-.02.02-.22.04-.4.05-.56.01-.16.02-.29.02-.39,0-.01,0-.02,0-.03,0-.05,0-.09,0-.12,0,0,0-.01,0-.02,0-.03,0-.04,0-.04l.25-4.13Z"/>
        <path class="cls-2" d="m78.45,79.97c0,1.04-.08,2.07-.21,3.11.83.59,1.72,1.26,2.7,2.09,1.23-.59,2.71-.93,4.55-.93.9,0,1.74.09,2.53.25,0,0,0,0-.01-.01-4.36-4.36-7.2-6.18-9.88-7.81.22,1.06.32,2.14.32,3.3Z"/>
        <path class="cls-2" d="m103.42,104.19c-4.16-4.16-5.69-6.69-7.31-9.36-.04-.07-.08-.14-.12-.21-.12,2.58-1.14,5.08-2,6.75,1.3,1.84,3.01,3.93,5.67,6.58,4.62,4.62,7.54,6.39,10.36,8.1,1.07.65,2.12,1.29,3.26,2.08l.37-6.11c-.29-.18-.58-.35-.87-.53-2.67-1.62-5.19-3.15-9.36-7.31Z"/>
        <path class="cls-2" d="m39.77,45.81c2.67,1.62,5.19,3.15,9.35,7.31,4.16,4.16,5.69,6.68,7.31,9.35,1.59,2.62,3.23,5.33,7.16,9.4.81-1.36,1.88-2.77,3.24-4.32-3.09-3.3-4.43-5.51-5.85-7.85-1.71-2.82-3.48-5.74-8.1-10.36-2.99-2.99-5.27-4.78-7.27-6.14h-9.87c1.46,1.05,2.75,1.83,4.02,2.6Z"/>
        <path class="cls-2" d="m109.19,50.47c1.04,1.04,2.73,1.04,3.77,0,1.04-1.04,1.04-2.73,0-3.77-.5-.5-1.17-.78-1.89-.78s-1.38.28-1.88.78-.78,1.17-.78,1.88.28,1.38.78,1.89Z"/>
        <path class="cls-2" d="m112.96,63.17c-.5-.5-1.17-.78-1.89-.78s-1.38.28-1.88.78c-.5.5-.78,1.17-.78,1.89s.28,1.38.78,1.88c1.01,1.01,2.77,1,3.77,0,1.04-1.04,1.04-2.73,0-3.77Z"/>
        <path class="cls-2" d="m104.72,58.71c1.04-1.04,1.04-2.73,0-3.77-.52-.52-1.2-.78-1.89-.78s-1.37.26-1.89.78c-1.04,1.04-1.04,2.73,0,3.77,1.01,1,2.77,1,3.77,0Z"/>
        <path class="cls-2" d="m96.49,50.47c.5-.5.78-1.17.78-1.89s-.28-1.38-.78-1.88c-.5-.5-1.17-.78-1.88-.78s-1.38.28-1.89.78c-1.04,1.04-1.04,2.73,0,3.77,1.04,1.04,2.73,1.04,3.77,0Z"/>
        <path class="cls-2" d="m111.07,78.86c-.68,0-1.36.26-1.88.78-1.04,1.04-1.04,2.73,0,3.77,1.04,1.04,2.73,1.04,3.77,0,1.04-1.04,1.04-2.73,0-3.77-.52-.52-1.2-.78-1.89-.78Z"/>
        <path class="cls-2" d="m100.95,71.41c-1.04,1.04-1.04,2.73,0,3.77,1.04,1.04,2.73,1.04,3.77,0,1.04-1.04,1.04-2.73,0-3.77-1.04-1.04-2.73-1.04-3.77,0Z"/>
        <path class="cls-2" d="m96.49,66.94c.5-.5.78-1.17.78-1.88s-.28-1.38-.78-1.89c-1.01-1.01-2.76-1.01-3.77,0-1.04,1.04-1.04,2.73,0,3.77,1,1,2.76,1.01,3.77,0Z"/>
        <path class="cls-2" d="m88.25,58.71c.5-.5.78-1.17.78-1.88s-.28-1.38-.78-1.89-1.17-.78-1.89-.78-1.38.28-1.88.78c-.5.5-.78,1.17-.78,1.89s.28,1.38.78,1.88c1.01,1.01,2.77,1,3.77,0Z"/>
        <path class="cls-2" d="m80.02,50.47c.5-.5.78-1.17.78-1.89s-.28-1.38-.78-1.88c-.5-.5-1.17-.78-1.88-.78s-1.38.28-1.89.78-.78,1.17-.78,1.88.28,1.38.78,1.89c1.04,1.04,2.73,1.04,3.77,0Z"/>
        <path class="cls-2" d="m111.07,95.33c-.71,0-1.38.28-1.88.78s-.78,1.17-.78,1.89.28,1.38.78,1.88c1.01,1.01,2.77,1,3.77,0,1.04-1.04,1.04-2.73,0-3.77-.5-.5-1.17-.78-1.89-.78Z"/>
        <path class="cls-2" d="m104.72,87.88c-.52-.52-1.2-.78-1.89-.78s-1.37.26-1.89.78c-1.04,1.04-1.04,2.73,0,3.77,1.04,1.04,2.73,1.04,3.77,0,1.04-1.04,1.04-2.73,0-3.77Z"/>
        <path class="cls-2" d="m96.49,79.64c-1.04-1.04-2.73-1.04-3.77,0-1.04,1.04-1.04,2.73,0,3.77,1.04,1.04,2.73,1.04,3.77,0,1.04-1.04,1.04-2.73,0-3.77Z"/>
        <path class="cls-2" d="m88.25,75.18c1.04-1.04,1.04-2.73,0-3.77-.52-.52-1.2-.78-1.89-.78s-1.36.26-1.88.78c-.5.5-.78,1.17-.78,1.89s.28,1.38.78,1.89c1.04,1.04,2.73,1.04,3.77,0Z"/>
        <path class="cls-2" d="m80.02,66.94c.5-.5.78-1.17.78-1.88s-.28-1.38-.78-1.89c-.5-.5-1.17-.78-1.88-.78s-1.38.28-1.89.78c-.5.5-.78,1.17-.78,1.89s.28,1.38.78,1.88c1,1,2.76,1.01,3.77,0Z"/>
        <path class="cls-2" d="m71.78,58.71c1.04-1.04,1.04-2.73,0-3.77-.5-.5-1.17-.78-1.89-.78s-1.38.28-1.88.78-.78,1.17-.78,1.89.28,1.38.78,1.88c1.01,1.01,2.77,1,3.77,0Z"/>
        <path class="cls-2" d="m63.55,50.47c1.04-1.04,1.04-2.73,0-3.77-.52-.52-1.2-.78-1.89-.78s-1.37.26-1.89.78c-1.04,1.04-1.04,2.73,0,3.77,1.04,1.04,2.73,1.04,3.77,0Z"/>
        <path class="cls-2" d="m97.27,147.41c0-.71-.28-1.38-.78-1.88-.5-.5-1.17-.78-1.88-.78s-1.38.28-1.89.78c-1.04,1.04-1.04,2.73,0,3.77.33.33.74.54,1.17.65.09-.03.18-.06.27-.09.75-.23,1.49-.48,2.24-.75.11-.04.23-.07.34-.11.34-.46.53-1.01.53-1.59Z"/>
        <path class="cls-2" d="m88.25,141.06c.5-.5.78-1.17.78-1.88s-.28-1.38-.78-1.89c-.5-.5-1.17-.78-1.89-.78s-1.38.28-1.88.78c-.5.5-.78,1.17-.78,1.89s.28,1.38.78,1.88c1.01,1.01,2.77,1.01,3.77,0Z"/>
        <path class="cls-2" d="m76.25,132.82c1.04,1.04,2.73,1.04,3.77,0,.5-.5.78-1.17.78-1.89s-.28-1.38-.78-1.88c-.5-.5-1.17-.78-1.88-.78s-1.38.28-1.89.78-.78,1.17-.78,1.88.28,1.38.78,1.89Z"/>
        <path class="cls-2" d="m64.09,115.55c.44-.98.26-2.17-.54-2.97-.03-.03-.08-.06-.11-.09h-3.55s-.08.06-.11.09c-1.04,1.04-1.04,2.73,0,3.77.26.26.57.46.89.59,1.3-.04,2.5-.54,3.42-1.39Z"/>
        <path class="cls-2" d="m55.31,108.12c1.04-1.04,1.04-2.73,0-3.77-1-1-2.76-1.01-3.77,0-1.04,1.04-1.04,2.73,0,3.77,1.04,1.04,2.73,1.04,3.77,0Z"/>
        <path class="cls-2" d="m43.31,96.11c-.5.5-.78,1.17-.78,1.89s.28,1.38.78,1.88c.56.56,1.36.8,2.14.73-.64-1.36-1.28-3.1-1.53-4.94-.22.12-.42.26-.6.44Z"/>
        <path class="cls-2" d="m35.07,91.65c1.04,1.04,2.73,1.04,3.77,0,.5-.5.78-1.17.78-1.89s-.28-1.38-.78-1.88-1.17-.78-1.88-.78-1.38.28-1.89.78-.78,1.17-.78,1.88.28,1.38.78,1.89Z"/>
        <path class="cls-2" d="m30.61,83.41c1.04-1.04,1.04-2.73,0-3.77-.52-.52-1.2-.78-1.89-.78s-1.36.26-1.88.78c-1.04,1.04-1.04,2.73,0,3.77,1.04,1.04,2.73,1.04,3.77,0Z"/>
        <path class="cls-2" d="m78.14,144.74c-.71,0-1.38.28-1.89.78-.5.5-.78,1.17-.78,1.88s.28,1.38.78,1.89c1,1.01,2.76,1.01,3.77,0,.5-.5.78-1.17.78-1.89s-.28-1.38-.78-1.88c-.5-.5-1.17-.78-1.88-.78Z"/>
        <path class="cls-2" d="m68.02,141.06c1.01,1.01,2.77,1.01,3.77,0,1.04-1.04,1.04-2.73,0-3.77-.5-.5-1.17-.78-1.89-.78s-1.38.28-1.88.78c-.5.5-.78,1.17-.78,1.89s.28,1.38.78,1.88Z"/>
        <path class="cls-2" d="m63.55,132.82c1.04-1.04,1.04-2.73,0-3.77-.52-.52-1.2-.78-1.89-.78s-1.37.26-1.89.78c-1.04,1.04-1.04,2.73,0,3.77,1.04,1.04,2.73,1.04,3.77,0Z"/>
        <path class="cls-2" d="m51.54,120.82c-1.04,1.04-1.04,2.73,0,3.77,1.04,1.04,2.73,1.04,3.77,0,1.04-1.04,1.04-2.73,0-3.77-1.04-1.04-2.73-1.04-3.77,0Z"/>
        <path class="cls-2" d="m43.31,116.35c1,1.01,2.76,1.01,3.77,0,.5-.5.78-1.17.78-1.88s-.28-1.38-.78-1.89c-1.04-1.04-2.73-1.04-3.77,0-.5.5-.78,1.17-.78,1.89s.28,1.38.78,1.88Z"/>
        <path class="cls-2" d="m35.07,108.12c1,1.01,2.76,1.01,3.77,0,.5-.5.78-1.17.78-1.88s-.28-1.38-.78-1.89c-.5-.5-1.17-.78-1.88-.78s-1.38.28-1.89.78c-.5.5-.78,1.17-.78,1.89s.28,1.38.78,1.88Z"/>
        <path class="cls-2" d="m30.61,96.11c-.5-.5-1.17-.78-1.89-.78s-1.38.28-1.88.78c-.5.5-.78,1.17-.78,1.89s.28,1.38.78,1.88c1.01,1.01,2.77,1,3.77,0,1.04-1.04,1.04-2.73,0-3.77Z"/>
        <path class="cls-2" d="m63.55,149.29c1.04-1.04,1.04-2.73,0-3.77-.5-.5-1.17-.78-1.89-.78s-1.38.28-1.89.78c-1.04,1.04-1.04,2.73,0,3.77,1.04,1.04,2.73,1.04,3.77,0Z"/>
        <path class="cls-2" d="m55.31,141.06c1.04-1.04,1.04-2.73,0-3.77-.52-.52-1.2-.78-1.89-.78s-1.37.26-1.89.78c-1.04,1.04-1.04,2.73,0,3.77,1.01,1.01,2.77,1.01,3.77,0Z"/>
        <path class="cls-2" d="m45.19,128.27c-.71,0-1.38.28-1.89.78-.5.5-.78,1.17-.78,1.88s.28,1.38.78,1.89c1.04,1.04,2.73,1.04,3.77,0,.5-.5.78-1.17.78-1.89s-.28-1.38-.78-1.88c-.5-.5-1.17-.78-1.88-.78Z"/>
        <path class="cls-2" d="m36.96,120.04c-.68,0-1.37.26-1.89.78-1.04,1.04-1.04,2.73,0,3.77,1.04,1.04,2.73,1.04,3.77,0,.5-.5.78-1.17.78-1.89s-.28-1.38-.78-1.89c-.52-.52-1.2-.78-1.88-.78Z"/>
        <path class="cls-2" d="m30.61,116.35c1.04-1.04,1.04-2.73,0-3.77-.52-.52-1.2-.78-1.89-.78s-1.36.26-1.88.78c-.26.26-.46.57-.59.9l.14,2.26c.12.22.27.43.46.61,1.01,1.01,2.77,1.01,3.77,0Z"/>
        <path class="cls-2" d="m47.86,147.41c0-.71-.28-1.38-.78-1.88-.5-.5-1.17-.78-1.88-.78s-1.38.28-1.89.78c-.5.5-.78,1.17-.78,1.88,0,.58.19,1.13.53,1.59.11.04.23.07.34.11.75.27,1.5.52,2.25.75.09.03.18.06.27.09.43-.11.84-.32,1.17-.65.5-.5.78-1.17.78-1.89Z"/>
        <path class="cls-2" d="m38.84,137.29c-.5-.5-1.17-.78-1.88-.78s-1.38.28-1.89.78c-.5.5-.78,1.17-.78,1.89s.28,1.38.78,1.88c1,1.01,2.76,1.01,3.77,0,.5-.5.78-1.17.78-1.88s-.28-1.38-.78-1.89Z"/>
        <path class="cls-2" d="m30.61,132.82c1.04-1.04,1.04-2.73,0-3.77-.5-.5-1.17-.78-1.89-.78-.56,0-1.09.17-1.54.49l.11,1.87s0,.01,0,.04c0,.01,0,.02,0,.04,0,.02,0,.05,0,.09,0,.02,0,.04,0,.06,0,.04,0,.09,0,.15,0,.03,0,.05,0,.08.01.17.03.39.05.65,0,.04,0,.08.01.12.01.1.02.2.04.31,0,.05.01.1.02.15.02.11.03.22.05.34,0,.05.02.1.03.16.03.17.06.35.1.53,0,0,0,0,0,0,.98.45,2.19.28,2.99-.53Z"/>
        <path class="cls-2" d="m74.59,122.9c2.59,0,4.69-2.1,4.69-4.69-2.88,0-5.31-1.84-6.2-4.43-.23-.65-.35-1.37-.35-2.12v-.43h6.55c.17-2.22.5-4.26.97-6.04,1.4-5.19,3.91-8.34,6.41-8.34,3.35,0,5.12,5.83,5.12,5.83,0,0,2.97-4.32,2.97-8.57s-3.04-8.62-9.26-8.62-7.95,3.76-9.55,11.81c-.76,3.84-1.07,6.99-1.17,9.61h-1.99c.09-2.62.4-5.77,1.14-9.61,1.6-8.05,3.27-12.56,3.27-17.34s-1.78-8.21-7.29-13.87c-5.51,5.66-7.29,9.1-7.29,13.87s1.67,9.29,3.27,17.34c.75,3.84,1.05,6.99,1.14,9.61h-1.99c-.11-2.62-.41-5.77-1.17-9.61-1.6-8.05-3.33-11.81-9.55-11.81s-9.26,4.37-9.26,8.62,2.97,8.57,2.97,8.57c0,0,1.77-5.83,5.12-5.83,2.5,0,5.01,3.15,6.41,8.34.47,1.78.81,3.82.97,6.04h6.55v.43c0,.75-.12,1.46-.35,2.12-.88,2.59-3.32,4.43-6.2,4.43,0,2.59,2.1,4.69,4.69,4.69.37,0,.73-.05,1.07-.12.46,2.3,1.78,4.29,3.62,5.62,1.84-1.32,3.17-3.32,3.62-5.62.33.08.7.12,1.07.12Z"/>
      </g>
      <g>
        <path class="cls-2" d="m0,200.93h5.68v25.4c0,3.22.61,5.68,1.82,7.39,2.01,2.69,5.13,4.03,9.38,4.03,7.39,0,11.08-3.88,11.08-11.65v-25.18h5.51v25.29c0,4.51-1.12,8.15-3.35,10.91-3.03,3.79-7.44,5.68-13.24,5.68-2.58,0-5.21-.48-7.9-1.45-2.69-.97-4.89-2.66-6.59-5.09-1.59-2.31-2.39-5.76-2.39-10.34v-25Z"/>
        <path class="cls-2" d="m44.33,241.96v-41.03h24.44v4.83h-18.64v12.79h17.56v4.77h-17.56v18.64h-5.8Z"/>
        <path class="cls-2" d="m75.52,241.96v-41.03h13.75c2.88,0,5.14.2,6.79.6,1.65.4,3.12,1.3,4.4,2.7,2.01,2.05,3.01,4.7,3.01,7.96s-1.08,5.85-3.24,8.01c-1.17,1.17-2.67,2.06-4.49,2.64-1.82.59-4.45.88-7.9.88h-6.65v18.24h-5.68Zm5.68-36.43v13.41h6.76c.95,0,1.76-.03,2.44-.09.68-.06,1.51-.21,2.47-.45.97-.25,1.75-.61,2.36-1.08.61-.47,1.13-1.16,1.56-2.07s.65-2.01.65-3.3c0-1.21-.21-2.25-.63-3.13-.42-.87-.88-1.51-1.39-1.93-.51-.42-1.22-.73-2.13-.94-.91-.21-1.62-.33-2.13-.37-.51-.04-1.18-.06-2.02-.06h-7.96Z"/>
        <path class="cls-2" d="m110.64,241.96v-41.03h14.66c2.65,0,4.74.2,6.25.6,1.51.4,2.88,1.2,4.09,2.42,1.93,1.86,2.9,4.3,2.9,7.33,0,1.29-.19,2.45-.57,3.49-.38,1.04-.8,1.87-1.25,2.47-.45.61-1.07,1.16-1.85,1.68-.78.51-1.36.85-1.73,1.02-.38.17-.89.37-1.53.6.72.19,1.33.38,1.82.57.49.19,1.18.55,2.07,1.08.89.53,1.61,1.13,2.16,1.79.55.66,1.04,1.59,1.48,2.78.43,1.19.65,2.53.65,4.01,0,4.02-1.65,7.12-4.94,9.32-.87.57-1.89,1-3.04,1.31-1.16.3-2.12.47-2.9.51-.78.04-1.89.06-3.32.06h-14.95Zm5.51-36.37v12.67h7.96c5.68,0,8.52-2.16,8.52-6.48,0-1.17-.2-2.18-.6-3.01-.4-.83-.85-1.45-1.36-1.85-.51-.4-1.21-.71-2.1-.94-.89-.23-1.6-.35-2.13-.37-.53-.02-1.23-.03-2.1-.03h-8.18Zm0,17.56v14.21h9.72c2.35,0,4.28-.62,5.8-1.85,1.51-1.23,2.27-2.98,2.27-5.26,0-2.08-.69-3.79-2.07-5.11-1.38-1.33-3.31-1.99-5.77-1.99h-9.94Z"/>
      </g>
    </g>
  </g>
</svg>